<svg width="22" height="24" viewBox="0 0 22 24" fill="none" xmlns="http://www.w3.org/2000/svg">
<path d="M0.407842 24C0.0790988 23.8363 -0.0440211 23.5919 0.013731 23.2175C0.159698 22.2688 0.275837 21.3151 0.402764 20.3632C0.725796 17.9489 1.04629 15.5346 1.37122 13.1203C1.72789 10.4666 2.08836 7.81292 2.44567 5.15924C2.50659 4.70613 2.68493 4.54363 3.14377 4.54301C4.22075 4.54238 5.2971 4.54301 6.37408 4.54301C6.45912 4.54301 6.54416 4.54301 6.63936 4.54301C6.64888 4.35426 6.65142 4.19052 6.66665 4.02802C6.83673 2.20557 7.7925 0.953725 9.50475 0.270618C9.82969 0.141246 10.1857 0.0881227 10.5272 0C10.8438 0 11.1605 0 11.4772 0C11.5204 0.0143746 11.5629 0.0356241 11.6073 0.0431239C13.4313 0.360616 14.6339 1.38934 15.1765 3.13242C15.3136 3.57366 15.3307 4.05114 15.4082 4.54301C15.4596 4.54301 15.5446 4.54301 15.6296 4.54301C16.7301 4.54301 17.8306 4.54176 18.931 4.54426C19.2826 4.54488 19.5022 4.72988 19.5479 5.06674C19.7396 6.47483 19.9287 7.88292 20.1172 9.29101C20.425 11.5891 20.7309 13.8871 21.0387 16.1852C21.3516 18.522 21.6606 20.8595 21.9868 23.1944C22.0395 23.5731 21.9392 23.8319 21.5953 24H0.407842ZM20.7855 22.8669C20.7766 22.7894 20.7715 22.735 20.7639 22.6813C20.5665 21.2188 20.3685 19.757 20.1724 18.2945C19.8951 16.229 19.6196 14.1628 19.3423 12.0966C19.0649 10.031 18.7838 7.96542 18.5115 5.89922C18.4887 5.72735 18.4449 5.66173 18.2558 5.66423C17.3616 5.67485 16.4667 5.6686 15.5719 5.66923C15.5034 5.66923 15.4348 5.67735 15.3491 5.68298C15.3491 6.18546 15.3574 6.6692 15.3466 7.15231C15.3384 7.5123 15.1023 7.74167 14.7742 7.73917C14.4454 7.73667 14.2208 7.50605 14.2131 7.14231C14.2049 6.73607 14.2112 6.32983 14.21 5.9236C14.21 5.84235 14.2011 5.76048 14.1966 5.68298H7.79059C7.79059 5.78172 7.79059 5.8661 7.79059 5.9511C7.79059 6.34921 7.79631 6.74795 7.78742 7.14606C7.77917 7.50855 7.55197 7.73855 7.22259 7.73917C6.89575 7.73917 6.66538 7.50918 6.65332 7.14794C6.64253 6.82045 6.65015 6.49171 6.65015 6.16359C6.65015 6.00359 6.65015 5.84297 6.65015 5.68423H3.52201C2.75156 11.4172 1.98301 17.1364 1.21256 22.8663H20.7848L20.7855 22.8669ZM14.1833 4.53176C14.3572 3.50053 13.7194 2.24494 12.7154 1.61621C11.6308 0.937476 10.2359 0.954975 9.18426 1.68808C8.19803 2.37556 7.75569 3.33241 7.79694 4.53176H14.1833Z" fill="#1D1D1B"/>
</svg>
