<svg width="24" height="20" viewBox="0 0 24 20" fill="none" xmlns="http://www.w3.org/2000/svg">
<path d="M23.9994 16.9584C23.8221 17.3778 23.5145 17.5211 23.083 17.5124C22.0603 17.4914 21.0365 17.5087 20.0132 17.5026C19.8706 17.5019 19.7925 17.5476 19.7191 17.6798C19.6217 17.8546 19.4978 18.0183 19.3633 18.1647C18.9888 18.5724 18.6054 18.9708 18.2221 19.3699C17.4166 20.2075 16.3681 20.2106 15.5603 19.376C15.1699 18.9733 14.7854 18.5644 14.4015 18.1548C14.3087 18.056 14.1919 17.9578 14.1484 17.8349C14.0357 17.5143 13.8144 17.5007 13.5397 17.5007C9.3298 17.5081 5.11936 17.5056 0.909501 17.505C0.785043 17.505 0.656476 17.5106 0.536714 17.4828C0.221459 17.4093 0.000135332 17.101 0.00189653 16.7632C0.00365773 16.4333 0.212653 16.143 0.523799 16.0615C0.642973 16.0306 0.770954 16.0262 0.894825 16.0256C5.15928 16.0238 9.42431 16.0225 13.6888 16.0287C13.8807 16.0287 14.0023 15.9917 14.0927 15.7952C14.1655 15.6371 14.2917 15.5018 14.4109 15.3733C14.7872 14.9675 15.1693 14.5678 15.5527 14.1688C16.367 13.3219 17.4166 13.3244 18.2321 14.1744C18.6096 14.5678 18.9847 14.9632 19.3581 15.3604C19.4567 15.4654 19.58 15.5679 19.6269 15.6976C19.7426 16.0176 19.9645 16.0324 20.2381 16.0287C21.175 16.0157 22.1132 16.0386 23.0495 16.017C23.484 16.0071 23.8057 16.1424 23.9988 16.563V16.9577L23.9994 16.9584ZM16.8918 18.5477C17.0039 18.4785 17.1108 18.4377 17.1847 18.3624C17.5933 17.9442 17.9972 17.5211 18.3965 17.0924C18.6049 16.8682 18.6049 16.6705 18.3976 16.4469C17.999 16.0182 17.5957 15.5939 17.1883 15.1744C16.9869 14.9675 16.792 14.9656 16.5918 15.1713C16.1838 15.5901 15.7811 16.0151 15.3825 16.4438C15.1717 16.6705 15.1717 16.8645 15.3807 17.0887C15.7799 17.5168 16.1826 17.9411 16.5918 18.3593C16.6705 18.4402 16.785 18.4822 16.8918 18.5477Z" fill="black"/>
<path d="M23.9994 3.44427C23.8074 3.86554 23.4846 3.99217 23.0507 3.9897C20.4888 3.97673 17.9262 3.98538 15.3643 3.97858C15.1852 3.97858 15.0742 4.02059 15.0026 4.20034C14.9621 4.3035 14.8881 4.398 14.8118 4.4783C14.3163 5.00212 13.8367 5.54569 13.3119 6.03553C12.6767 6.62791 11.7074 6.62729 11.0793 6.0343C10.5397 5.52469 10.0466 4.96073 9.53351 4.42024C9.51179 4.39739 9.48419 4.3733 9.4748 4.34365C9.3568 3.96561 9.07794 3.97673 8.76856 3.97797C6.14379 3.98723 3.5196 3.98414 0.894825 3.98229C0.770954 3.98229 0.642973 3.97797 0.523799 3.94708C0.186822 3.85813 -0.029218 3.52643 0.0042448 3.17187C0.0382947 2.81236 0.306584 2.5344 0.651192 2.50722C0.744536 2.49981 0.838466 2.50289 0.932397 2.50289C3.63525 2.50289 6.33811 2.50104 9.04037 2.50722C9.21121 2.50722 9.31923 2.46645 9.38204 2.29411C9.40905 2.21999 9.45954 2.15019 9.51355 2.09212C10.0108 1.55843 10.4875 1.00003 11.0164 0.503393C11.7438 -0.180403 12.6896 -0.163107 13.4123 0.528101C13.8913 0.986436 14.3328 1.48801 14.7901 1.97167C14.8341 2.018 14.8876 2.0668 14.9058 2.12486C15.0331 2.52575 15.3331 2.50784 15.6548 2.5066C18.1311 2.49857 20.6073 2.50907 23.0836 2.49548C23.5145 2.49301 23.8221 2.62952 24 3.04956V3.44427H23.9994ZM13.8831 3.23425C13.8261 3.12616 13.7938 3.01806 13.7269 2.9464C13.3183 2.50536 12.9056 2.06803 12.4865 1.63811C12.2951 1.4423 12.0978 1.44354 11.9082 1.63811C11.4949 2.06309 11.0869 2.49363 10.683 2.92787C10.4851 3.14036 10.484 3.3405 10.6818 3.55422C11.0851 3.98908 11.4937 4.41962 11.907 4.84398C12.099 5.04041 12.2939 5.0398 12.4859 4.84275C12.905 4.41221 13.3183 3.97611 13.7263 3.53446C13.7974 3.45724 13.8297 3.3405 13.8831 3.23487V3.23425Z" fill="black"/>
<path d="M23.9994 10.3001C23.8127 10.7276 23.491 10.8511 23.056 10.8499C18.6424 10.8388 14.2295 10.8443 9.81589 10.8394C9.64211 10.8394 9.53233 10.8728 9.44956 11.0544C9.37735 11.2131 9.25406 11.3509 9.13489 11.4793C8.74214 11.9031 8.34646 12.3237 7.94256 12.7351C7.15824 13.5351 6.1115 13.532 5.33129 12.7283C4.92915 12.3145 4.53405 11.8938 4.13837 11.4725C4.05089 11.3793 3.94287 11.286 3.90178 11.1705C3.78378 10.8382 3.54837 10.8326 3.26775 10.8369C2.4165 10.8511 1.56525 10.8462 0.713421 10.8394C0.344156 10.8363 0.0647126 10.5763 0.00835426 10.2118C-0.0421335 9.88505 0.140444 9.53667 0.441609 9.42116C0.5555 9.3773 0.685242 9.36495 0.807939 9.36433C1.70615 9.36 2.60436 9.35815 3.50257 9.36556C3.65228 9.3668 3.73916 9.3285 3.81548 9.18087C3.90354 9.01038 4.02624 8.85472 4.15539 8.71451C4.53581 8.30126 4.92445 7.89667 5.31426 7.49269C6.11208 6.66559 7.16 6.66312 7.959 7.48651C8.34939 7.88926 8.7351 8.29756 9.11904 8.70647C9.21767 8.81148 9.34154 8.91464 9.38733 9.04436C9.4977 9.35939 9.71315 9.36618 9.97909 9.36556C14.3375 9.35877 18.6964 9.36556 23.0548 9.35383C23.4916 9.35259 23.8116 9.47737 23.9988 9.90358V10.2983L23.9994 10.3001ZM8.33296 10.1025C8.27014 9.98759 8.23316 9.87455 8.16153 9.79734C7.75881 9.36186 7.35021 8.93132 6.9375 8.50634C6.74964 8.31238 6.54299 8.30559 6.35748 8.49522C5.93714 8.92452 5.52326 9.36 5.11525 9.80228C4.92738 10.0055 4.93032 10.2056 5.11935 10.4107C5.52208 10.8462 5.93068 11.2767 6.34456 11.7011C6.54064 11.9025 6.74553 11.8988 6.9422 11.6962C7.34962 11.2767 7.75235 10.8524 8.14979 10.4225C8.22611 10.3397 8.26779 10.2205 8.33296 10.1037V10.1025Z" fill="black"/>
</svg>
