<svg width="24" height="22" viewBox="0 0 24 22" fill="currentColor" xmlns="http://www.w3.org/2000/svg">
<path d="M12.704 21.5902L12.704 21.5903C12.6571 21.6201 12.6087 21.6483 12.5584 21.6777C12.5086 21.7067 12.4568 21.7369 12.4061 21.7692L12.406 21.7692C12.2623 21.8609 12.1253 21.9013 11.9914 21.9C11.8569 21.8986 11.7173 21.8552 11.5689 21.7661C10.2125 20.9516 8.9475 20.0182 7.75509 18.9943L7.68994 19.0702L7.75508 18.9943C5.16604 16.7717 2.99063 14.2301 1.31904 11.3009L1.31904 11.3009C0.803192 10.3971 0.351854 9.48237 0.203137 8.46964L0.203136 8.46963C-0.0110067 7.01237 0.105344 5.67617 0.579958 4.48165C1.05443 3.28749 1.88931 2.22892 3.12175 1.33005L3.12176 1.33004C5.68692 -0.541212 9.33461 -0.235761 11.6054 1.96276L11.6054 1.96283C11.6726 2.02774 11.7387 2.09319 11.8099 2.1637C11.8428 2.1963 11.8769 2.22998 11.9126 2.26519L11.9793 2.331L12.0493 2.26862C12.0698 2.25037 12.0906 2.23231 12.1114 2.21435C12.1519 2.17923 12.192 2.14448 12.2281 2.10938L12.2287 2.10876C13.402 0.948857 14.8161 0.261742 16.4973 0.128829L16.4895 0.0291398L16.4973 0.128828C17.8889 0.0186404 19.1997 0.307328 20.3805 1.01942C22.4967 2.29591 23.6111 4.16864 23.8647 6.54103C23.8702 6.59186 23.8813 6.64512 23.8911 6.69212C23.8943 6.70743 23.8973 6.72207 23.9 6.73575V7.7081C23.8738 7.85098 23.8498 7.99285 23.826 8.13386C23.7733 8.4462 23.7213 8.75431 23.6467 9.05978C23.386 10.1227 22.8285 11.0658 22.2459 12.0072C19.8331 15.9042 16.6387 19.0872 12.704 21.5902Z" fill="currentColor" stroke="white" stroke-width="0.2"/>
</svg>
