<svg width="24" height="22" viewBox="0 0 24 22" fill="none" xmlns="http://www.w3.org/2000/svg">
<path d="M1.56063 8.81567C1.74679 9.63154 2.17598 10.3507 2.59128 11.0465C2.6047 11.069 2.61811 11.0914 2.63149 11.1139L2.6315 11.1139C4.9066 14.9274 7.9939 18.012 11.764 20.4783C11.8378 20.5267 11.9133 20.5607 11.9967 20.5604C12.081 20.56 12.1554 20.5247 12.2271 20.4729L12.2272 20.4727C12.5053 20.2705 12.7885 20.0714 13.0724 19.8718C13.6154 19.49 14.1612 19.1063 14.6793 18.6947L14.6793 18.6947C17.493 16.458 19.7978 13.8102 21.5762 10.738C22.3629 9.37908 22.8303 7.95007 22.5943 6.36667C22.2892 4.32026 21.2505 2.71049 19.2773 1.80122L19.2354 1.89204L19.2772 1.80122C17.3624 0.919145 15.4906 1.14753 13.7967 2.36619L13.7967 2.36621C13.4016 2.65071 13.0687 3.02149 12.7478 3.37888C12.6805 3.45384 12.6138 3.5282 12.5471 3.60106C12.3565 3.80909 12.1628 3.90292 11.9836 3.90333C11.8057 3.90374 11.6178 3.81206 11.4374 3.59717C11.3891 3.5391 11.3416 3.48067 11.2954 3.42181C10.8461 2.84868 10.3095 2.3596 9.65246 2.00709L9.65244 2.00708C7.82129 1.02496 5.96243 1.00695 4.17756 2.07774L4.17754 2.07775C2.22854 3.24752 1.39703 5.04246 1.30616 7.37755L1.30321 7.4535L1.31949 7.45872C1.33338 7.54168 1.34793 7.63422 1.36359 7.73385C1.41324 8.04966 1.47409 8.43671 1.56063 8.81567ZM1.56063 8.81567L1.65812 8.79343L1.56063 8.81567ZM23.9 6.73575V7.7081C23.8738 7.85099 23.8498 7.99288 23.826 8.1339C23.7733 8.44622 23.7213 8.75432 23.6467 9.05978C23.386 10.1227 22.8285 11.0658 22.2459 12.0072C19.8331 15.9042 16.6387 19.0872 12.704 21.5902L12.704 21.5903C12.6571 21.6201 12.6087 21.6483 12.5584 21.6777L12.5577 21.6781C12.5081 21.707 12.4566 21.737 12.4061 21.7692L12.406 21.7692C12.2623 21.8609 12.1253 21.9013 11.9914 21.9C11.8569 21.8986 11.7173 21.8552 11.5689 21.7661C10.2125 20.9516 8.9475 20.0182 7.75509 18.9943L7.68994 19.0702L7.75508 18.9943C5.16604 16.7717 2.99063 14.2301 1.31904 11.3009L1.31904 11.3009C0.803192 10.3971 0.351854 9.48237 0.203137 8.46964L0.203136 8.46963C-0.0110067 7.01237 0.105344 5.67617 0.579958 4.48165C1.05443 3.28749 1.88931 2.22892 3.12175 1.33005L3.12176 1.33004C5.68692 -0.541212 9.33461 -0.235761 11.6054 1.96276L11.6054 1.96283C11.6726 2.02773 11.7387 2.09316 11.8099 2.16364C11.8428 2.19626 11.8768 2.22996 11.9126 2.26519L11.9793 2.331L12.0493 2.26862C12.0698 2.25037 12.0906 2.23231 12.1113 2.21435C12.1519 2.17923 12.192 2.14449 12.2281 2.10938L12.2287 2.10876C13.402 0.948857 14.8161 0.261742 16.4973 0.128829L16.4895 0.0291398L16.4973 0.128828C17.8889 0.0186404 19.1997 0.307328 20.3805 1.01942C22.4967 2.29591 23.6111 4.16864 23.8647 6.54103C23.8702 6.59186 23.8813 6.64512 23.8911 6.69213C23.8943 6.70743 23.8973 6.72207 23.9 6.73575Z" fill="black" stroke="white" stroke-width="0.2"/>
</svg>
