<svg width="99" height="30" viewBox="0 0 99 30" fill="none" xmlns="http://www.w3.org/2000/svg">
<path d="M8.50287 0.236908C12.3777 0.236908 14.528 2.369 14.528 6.18091V13.1371C14.528 16.9598 12.3668 19.0811 8.50287 19.0811H4.50794V29.7416H0V0.247676H8.50287V0.236908ZM10.3912 7.27926C10.3912 4.91027 9.04862 3.5858 6.6473 3.5858H4.50794V15.6569H6.6473C9.05954 15.6569 10.3912 14.3324 10.3912 11.9634V7.29003V7.27926Z" fill="#1D1D1B"/>
<path d="M25.0497 0.247681C28.9246 0.247681 31.0749 2.37977 31.0749 6.19169V13.1479C31.0749 15.3123 30.3545 16.9167 29.0447 17.9182C30.2017 18.5643 30.8238 19.7595 30.8238 21.4501V29.7631H26.687V21.4501C26.687 19.9426 25.8356 19.1027 24.3075 19.1027H21.0439V29.7631H16.5469V0.247681H25.0497ZM26.9381 7.29004C26.9381 4.92105 25.5955 3.59657 23.1942 3.59657H21.0548V15.6676H23.1942C25.6064 15.6676 26.9381 14.3432 26.9381 11.9742V7.3008V7.29004Z" fill="#1D1D1B"/>
<path d="M33.7832 29.7631V0.247681H38.2802V29.7631H33.7832Z" fill="#1D1D1B"/>
<path d="M54.0633 0.226135V3.60733H45.8115V12.5126H53.332V16.0876H45.8115V26.1989H54.0633V29.7739H41.3145V0.25844L54.0633 0.226135Z" fill="#1D1D1B"/>
<path d="M62.4672 3.34889C60.7862 3.34889 59.8475 4.27495 59.8475 5.93324C59.8475 9.97129 61.7031 11.5327 65.9382 15.7215C70.1732 19.9103 69.6711 23.733 69.6711 23.733C69.6711 27.7602 67.3899 30.0108 63.3076 30.0108H61.7795C57.6973 30.0108 55.416 27.7602 55.416 23.733V20.944H59.5092V23.733C59.5092 25.4666 60.4806 26.425 62.238 26.425C63.9953 26.425 64.9667 25.4559 64.9667 23.733C64.9667 23.733 65.1632 20.8686 62.7619 18.4889C60.3496 16.1091 55.416 12.6633 55.416 5.95478C55.416 2.13209 57.5772 0.0107727 61.4412 0.0107727H62.8929C66.7677 0.0107727 68.918 2.14286 68.918 5.95478V9.17445H65.0759V5.93324C65.0759 4.27495 64.1372 3.34889 62.4563 3.34889H62.4672Z" fill="#1D1D1B"/>
<path d="M70 0.226135H84.7136V3.59656H79.6053V29.7739H75.1083V3.58579H70V0.226135Z" fill="#1D1D1B"/>
<path d="M93.9886 0.247681L98.9986 29.7631H94.1741L93.5738 25.5851H87.7451L87.1448 29.7631H82.3203L87.3194 0.247681H93.9886ZM92.9625 21.4178L90.7031 5.85787C90.7031 5.79327 90.6049 5.79327 90.594 5.85787L88.3345 21.4178H92.9516H92.9625Z" fill="#1D1D1B"/>
</svg>
