<svg width="70" height="56" viewBox="0 0 70 56" fill="none" xmlns="http://www.w3.org/2000/svg">
<path d="M17.3344 48.9541V46.1636C17.351 45.9289 17.3163 45.6935 17.2323 45.4729C17.1484 45.2525 17.0172 45.0519 16.8475 44.8846C16.6779 44.7174 16.4737 44.5873 16.2485 44.5032C16.0232 44.4189 15.7823 44.3825 15.5415 44.3963C15.2263 44.3762 14.9113 44.4389 14.6296 44.5779C14.3476 44.717 14.1093 44.9274 13.9392 45.1869C13.7842 44.9352 13.5625 44.7287 13.2973 44.5896C13.032 44.4505 12.7333 44.3837 12.4324 44.3963C12.1702 44.3834 11.909 44.4375 11.6748 44.5533C11.4406 44.6692 11.2416 44.8428 11.0973 45.0567V44.5079H10.1055V48.9541H11.1068V46.5077C11.0855 46.3558 11.0989 46.201 11.1461 46.0545C11.1932 45.9082 11.273 45.7738 11.3796 45.6609C11.4862 45.548 11.617 45.4595 11.7628 45.4017C11.9085 45.3438 12.0655 45.3183 12.2226 45.3265C12.8807 45.3265 13.2144 45.745 13.2144 46.4985V48.9726H14.2158V46.5077C14.1954 46.3559 14.2094 46.2014 14.2569 46.0554C14.3044 45.9094 14.384 45.7753 14.4906 45.6627C14.597 45.55 14.7274 45.4614 14.8728 45.4034C15.0181 45.3452 15.1748 45.319 15.3316 45.3265C16.0087 45.3265 16.333 45.745 16.333 46.4985V48.9726L17.3344 48.9541ZM32.1498 44.5079H30.5189V43.1592H29.5175V44.5079H28.6116V45.3916H29.5366V47.438C29.5366 48.4704 29.9467 49.0843 31.1198 49.0843C31.558 49.0858 31.9878 48.9664 32.3595 48.7401L32.0734 47.9123C31.8074 48.0671 31.5055 48.1534 31.196 48.1634C30.7192 48.1634 30.538 47.8657 30.538 47.4193V45.3916H32.1593L32.1498 44.5079ZM40.6088 44.3963C40.367 44.3894 40.1278 44.4462 39.9164 44.5607C39.7048 44.6754 39.5289 44.8435 39.4073 45.0474V44.5079H38.425V48.9541H39.4168V46.4613C39.4168 45.7264 39.741 45.3171 40.3705 45.3171C40.5826 45.3143 40.7933 45.3522 40.9904 45.4287L41.2955 44.4986C41.0691 44.4196 40.8304 44.3787 40.5898 44.3777L40.6088 44.3963ZM27.8201 44.8613C27.2586 44.5358 26.6132 44.3744 25.9604 44.3963C24.8064 44.3963 24.0531 44.9358 24.0531 45.8195C24.0531 46.5449 24.6062 46.9914 25.6266 47.131L26.1034 47.196C26.647 47.2705 26.9045 47.41 26.9045 47.6612C26.9045 48.0054 26.5422 48.2006 25.8651 48.2006C25.3203 48.216 24.7863 48.0522 24.3486 47.7355L23.8718 48.489C24.4495 48.8824 25.1415 49.0846 25.846 49.0657C27.162 49.0657 27.925 48.4611 27.925 47.6146C27.925 46.7681 27.3241 46.424 26.3323 46.2845L25.8555 46.2195C25.4264 46.1636 25.083 46.0799 25.083 45.7823C25.083 45.4846 25.4073 45.2614 25.9508 45.2614C26.4533 45.2671 26.9459 45.3983 27.3814 45.6427L27.8201 44.8613ZM54.3847 44.3963C54.1429 44.3894 53.9036 44.4462 53.6922 44.5607C53.4807 44.6754 53.3048 44.8435 53.1831 45.0474V44.5079H52.2008V48.9541H53.1927V46.4613C53.1927 45.7264 53.517 45.3171 54.1463 45.3171C54.3585 45.3143 54.5691 45.3522 54.7663 45.4287L55.0714 44.4986C54.8449 44.4196 54.6063 44.3787 54.3656 44.3777L54.3847 44.3963ZM41.6055 46.7217C41.5937 47.0341 41.6489 47.3456 41.7675 47.636C41.8863 47.9265 42.0657 48.1895 42.2947 48.4084C42.5235 48.6273 42.7968 48.7971 43.0969 48.9071C43.397 49.0171 43.7174 49.0648 44.0373 49.0471C44.6328 49.0766 45.2182 48.8875 45.6777 48.5169L45.2008 47.7355C44.858 47.9906 44.4399 48.1309 44.0087 48.1356C43.6421 48.1065 43.3002 47.9441 43.0507 47.6804C42.8014 47.4167 42.6629 47.0712 42.6629 46.7124C42.6629 46.3536 42.8014 46.0081 43.0507 45.7444C43.3002 45.4807 43.6421 45.3181 44.0087 45.2892C44.4399 45.2939 44.858 45.4342 45.2008 45.6893L45.6777 44.9079C45.2182 44.5373 44.6328 44.3482 44.0373 44.3777C43.7174 44.36 43.397 44.4077 43.0969 44.5177C42.7968 44.6277 42.5235 44.7975 42.2947 45.0164C42.0657 45.2353 41.8863 45.4983 41.7675 45.7888C41.6489 46.0792 41.5937 46.3907 41.6055 46.7031V46.7217ZM50.8943 46.7217V44.5079H49.9024V45.0474C49.734 44.836 49.5165 44.6667 49.2677 44.5536C49.019 44.4403 48.7463 44.3865 48.472 44.3963C47.8396 44.3963 47.2331 44.6413 46.786 45.0775C46.3389 45.5135 46.0878 46.1049 46.0878 46.7217C46.0878 47.3385 46.3389 47.9299 46.786 48.3661C47.2331 48.8021 47.8396 49.0471 48.472 49.0471C48.7463 49.057 49.019 49.0031 49.2677 48.8899C49.5165 48.7766 49.734 48.6074 49.9024 48.396V48.9355H50.8943V46.7217ZM47.2036 46.7217C47.2194 46.46 47.3133 46.2085 47.4738 45.9981C47.6343 45.7879 47.8544 45.628 48.1069 45.5382C48.3594 45.4482 48.6334 45.4324 48.8951 45.4925C49.1566 45.5526 49.3946 45.6859 49.5795 45.8762C49.7643 46.0665 49.8882 46.3054 49.9356 46.5635C49.9831 46.8215 49.9522 47.0875 49.8467 47.3285C49.741 47.5697 49.5655 47.7754 49.3417 47.9205C49.1177 48.0654 48.8552 48.1435 48.5864 48.1449C48.3976 48.1471 48.2103 48.1114 48.0364 48.0397C47.8625 47.9679 47.7057 47.8621 47.5758 47.7283C47.4459 47.5947 47.3458 47.4362 47.2818 47.263C47.2176 47.0898 47.191 46.9055 47.2036 46.7217ZM35.2349 44.3963C34.6026 44.4049 33.9997 44.6582 33.5588 45.1004C33.118 45.5426 32.8752 46.1375 32.884 46.7543C32.8929 47.371 33.1526 47.959 33.606 48.389C34.0594 48.819 34.6693 49.0557 35.3017 49.0471C35.9877 49.0815 36.6624 48.866 37.1948 48.4425L36.7179 47.7263C36.3414 48.0208 35.8748 48.1844 35.3922 48.1913C35.0645 48.2188 34.7385 48.1205 34.4838 47.9173C34.2292 47.714 34.0658 47.4219 34.0285 47.103H37.414C37.414 46.9821 37.414 46.8612 37.414 46.731C37.414 45.3358 36.5271 44.4056 35.2493 44.4056L35.2349 44.3963ZM35.2349 45.2614C35.3833 45.2583 35.5309 45.2838 35.6693 45.3363C35.8076 45.3889 35.9339 45.4674 36.041 45.5677C36.1482 45.6679 36.2341 45.7876 36.2938 45.9203C36.3535 46.0529 36.3858 46.1955 36.3889 46.3404H34.0047C34.022 46.0418 34.1584 45.7617 34.3847 45.5601C34.6111 45.3583 34.9094 45.2512 35.2158 45.2614H35.2349ZM60.083 46.731V42.722H59.1293V45.0474C58.9609 44.836 58.7433 44.6667 58.4946 44.5536C58.2458 44.4403 57.973 44.3865 57.6988 44.3963C57.0665 44.3963 56.46 44.6413 56.0129 45.0775C55.5658 45.5135 55.3146 46.1049 55.3146 46.7217C55.3146 47.3385 55.5658 47.9299 56.0129 48.3661C56.46 48.8021 57.0665 49.0471 57.6988 49.0471C57.973 49.057 58.2458 49.0031 58.4946 48.8899C58.7433 48.7766 58.9609 48.6074 59.1293 48.396V48.9355H60.083V46.731ZM61.7376 48.3076C61.7996 48.3069 61.8612 48.3179 61.9189 48.3402C61.9736 48.362 62.0238 48.3935 62.0666 48.4331C62.1085 48.4733 62.1425 48.5206 62.1668 48.5727C62.1909 48.627 62.2033 48.6856 62.2033 48.7448C62.2033 48.804 62.1909 48.8625 62.1668 48.9169C62.1425 48.9689 62.1085 49.0163 62.0666 49.0564C62.0238 49.0961 61.9736 49.1277 61.9189 49.1494C61.8617 49.174 61.8 49.1867 61.7376 49.1866C61.6473 49.1859 61.5588 49.1602 61.4828 49.1125C61.4069 49.0648 61.3464 48.9968 61.3085 48.9169C61.2846 48.8625 61.2723 48.804 61.2723 48.7448C61.2723 48.6856 61.2846 48.6271 61.3085 48.5727C61.3328 48.5206 61.3666 48.4733 61.4086 48.4331C61.4515 48.3935 61.5017 48.362 61.5564 48.3402C61.6185 48.316 61.6851 48.305 61.7519 48.3076H61.7376ZM61.7376 49.0935C61.7852 49.0939 61.8323 49.0844 61.8759 49.0657C61.917 49.0479 61.9541 49.0225 61.9856 48.9912C62.0453 48.9278 62.0784 48.8449 62.0784 48.7587C62.0784 48.6727 62.0453 48.5897 61.9856 48.5262C61.9543 48.4949 61.917 48.4695 61.8759 48.4518C61.8323 48.4333 61.7852 48.4237 61.7376 48.4238C61.69 48.4241 61.6431 48.4336 61.5993 48.4518C61.5565 48.4689 61.5176 48.4942 61.4849 48.5262C61.4252 48.5897 61.3921 48.6727 61.3921 48.7587C61.3921 48.8449 61.4252 48.9278 61.4849 48.9912C61.5177 49.0232 61.5565 49.0485 61.5993 49.0657C61.6474 49.0859 61.6996 49.0955 61.7519 49.0935H61.7376ZM61.7663 48.5402C61.8107 48.538 61.8546 48.5512 61.8902 48.5773C61.9048 48.5892 61.9163 48.6042 61.9237 48.6211C61.9312 48.6382 61.9344 48.6566 61.9331 48.6751C61.9338 48.6905 61.9312 48.7059 61.9255 48.7203C61.9196 48.7348 61.911 48.7477 61.8998 48.7587C61.872 48.7833 61.8368 48.798 61.7996 48.8006L61.9378 48.9541H61.8283L61.6995 48.8006H61.6566V48.9541H61.566V48.5447L61.7663 48.5402ZM61.6613 48.6192V48.7308H61.7663C61.7849 48.7363 61.8047 48.7363 61.8234 48.7308C61.8269 48.7243 61.8285 48.7172 61.8285 48.7099C61.8285 48.7027 61.8269 48.6954 61.8234 48.6889C61.8269 48.6825 61.8285 48.6753 61.8285 48.6681C61.8285 48.6608 61.8269 48.6536 61.8234 48.6471C61.8047 48.6417 61.7849 48.6417 61.7663 48.6471L61.6613 48.6192ZM56.4161 46.731C56.4319 46.4693 56.5258 46.2178 56.6863 46.0074C56.8468 45.7972 57.0669 45.6373 57.3195 45.5475C57.572 45.4576 57.8459 45.4417 58.1076 45.5018C58.3692 45.5619 58.6071 45.6952 58.792 45.8855C58.9768 46.0758 59.1007 46.3147 59.1482 46.5728C59.1956 46.8308 59.1647 47.0968 59.0592 47.3378C58.9536 47.579 58.778 47.7847 58.5542 47.9298C58.3303 48.0747 58.0677 48.1527 57.7989 48.1541C57.6101 48.1564 57.4228 48.1207 57.249 48.049C57.075 47.9774 56.9182 47.8713 56.7883 47.7376C56.6584 47.6039 56.5583 47.4455 56.4943 47.2723C56.4302 47.0991 56.4035 46.9148 56.4161 46.731ZM22.9277 46.731V44.5079H21.9359V45.0474C21.7674 44.836 21.5499 44.6667 21.3012 44.5536C21.0524 44.4403 20.7796 44.3865 20.5054 44.3963C19.8731 44.3963 19.2666 44.6413 18.8195 45.0775C18.3724 45.5135 18.1212 46.1049 18.1212 46.7217C18.1212 47.3385 18.3724 47.9299 18.8195 48.3661C19.2666 48.8021 19.8731 49.0471 20.5054 49.0471C20.7796 49.057 21.0524 49.0031 21.3012 48.8899C21.5499 48.7766 21.7674 48.6074 21.9359 48.396V48.9355H22.9277V46.731ZM19.237 46.731C19.2527 46.4693 19.3467 46.2178 19.5072 46.0074C19.6678 45.7972 19.8878 45.6373 20.1403 45.5475C20.3928 45.4576 20.6667 45.4417 20.9284 45.5018C21.1901 45.5619 21.428 45.6952 21.6129 45.8855C21.7978 46.0758 21.9215 46.3147 21.969 46.5728C22.0165 46.8308 21.9855 47.0968 21.88 47.3378C21.7745 47.579 21.5989 47.7847 21.375 47.9298C21.1511 48.0747 20.8886 48.1527 20.6198 48.1541C20.4301 48.1577 20.2419 48.123 20.0668 48.0518C19.8918 47.9807 19.7337 47.8749 19.6029 47.7411C19.4719 47.6073 19.371 47.4484 19.3063 47.2746C19.2417 47.1006 19.2148 46.9155 19.2274 46.731H19.237Z" fill="#231F20"/>
<path d="M42.5088 10.627H27.4883V36.955H42.5088V10.627Z" fill="#FF5F00"/>
<path d="M28.4434 23.7954C28.4406 21.2595 29.0295 18.7562 30.1654 16.4751C31.3014 14.194 32.9546 12.1948 34.9999 10.6291C32.4675 8.68797 29.4262 7.48089 26.2236 7.14584C23.0212 6.81078 19.7866 7.36125 16.8896 8.73434C13.9927 10.1074 11.5503 12.2478 9.8415 14.9106C8.13273 17.5736 7.22656 20.6517 7.22656 23.7931C7.22656 26.9346 8.13273 30.0127 9.8415 32.6756C11.5503 35.3386 13.9927 37.4788 16.8896 38.8519C19.7866 40.2251 23.0212 40.7755 26.2236 40.4404C29.4262 40.1054 32.4675 38.8982 34.9999 36.9572C32.9552 35.3919 31.3023 33.3936 30.1664 31.1132C29.0305 28.833 28.4414 26.3306 28.4434 23.7954Z" fill="#EB001B"/>
<path d="M62.7759 23.7934C62.7759 26.9351 61.8694 30.0133 60.1604 32.6764C58.4513 35.3393 56.0085 37.4797 53.1112 38.8525C50.2139 40.2254 46.979 40.7755 43.7762 40.44C40.5735 40.1045 37.5322 38.8968 35 36.955C37.0439 35.3884 38.6963 33.3895 39.8324 31.1091C40.9687 28.8288 41.5591 26.3265 41.5591 23.7911C41.5591 21.2557 40.9687 18.7534 39.8324 16.473C38.6963 14.1926 37.0439 12.1937 35 10.627C37.5322 8.68529 40.5735 7.47763 43.7762 7.14208C46.979 6.80654 50.2139 7.35667 53.1112 8.72956C56.0085 10.1025 58.4513 12.2427 60.1604 14.9058C61.8694 17.5687 62.7759 20.6471 62.7759 23.7887V23.7934Z" fill="#F79E1B"/>
<path d="M61.1364 34.1646V33.6251H61.3605V33.5135H60.793V33.6251H61.0362V34.1646H61.1364ZM62.2378 34.1646V33.5135H62.0662L61.8659 33.9786L61.6657 33.5135H61.5131V34.1646H61.637V33.6762L61.823 34.0995H61.9517L62.1377 33.6762V34.1693L62.2378 34.1646Z" fill="#F79E1B"/>
</svg>
