<svg width="77" height="22" viewBox="0 0 77 22" fill="none" xmlns="http://www.w3.org/2000/svg">
<g clip-path="url(#clip0_462_3376)">
<mask id="mask0_462_3376" style="mask-type:luminance" maskUnits="userSpaceOnUse" x="0" y="0" width="77" height="22">
<path d="M77 0H0V22H77V0Z" fill="white"/>
</mask>
<g mask="url(#mask0_462_3376)">
<path fill-rule="evenodd" clip-rule="evenodd" d="M68.3565 0H53.7422C54.528 4.87143 59.2422 9.42858 64.428 9.42858H76.0565C76.2136 8.95714 76.2136 8.32858 76.2136 7.85714C76.2136 3.45714 72.7564 0 68.3565 0Z" fill="url(#paint0_linear_462_3376)"/>
<path fill-rule="evenodd" clip-rule="evenodd" d="M55 10.2143V22H62.0714V15.7143H68.3572C71.8144 15.7143 74.8 13.3571 75.7429 10.2143H55Z" fill="#4DB45F"/>
<path fill-rule="evenodd" clip-rule="evenodd" d="M29.8594 0V22H36.1451C36.1451 22 37.7166 22 38.5022 20.4286C42.7451 11.9429 44.0022 9.42857 44.0022 9.42857H44.788V22H51.8594V0H45.5737C45.5737 0 44.0022 0.157143 43.2166 1.57143C39.6023 8.8 37.7166 12.5714 37.7166 12.5714H36.9308V0H29.8594Z" fill="#4DB45F"/>
<path fill-rule="evenodd" clip-rule="evenodd" d="M0 22V0H7.07142C7.07142 0 9.11428 0 10.2143 3.14286C13.0429 11.4714 13.3572 12.5714 13.3572 12.5714C13.3572 12.5714 13.9858 10.5286 16.4999 3.14286C17.6 0 19.6428 0 19.6428 0H26.7143V22H19.6428V10.2143H18.8572L14.9286 22H11.7857L7.85714 10.2143H7.07142V22H0Z" fill="#4DB45F"/>
</g>
</g>
<defs>
<linearGradient id="paint0_linear_462_3376" x1="53.7016" y1="4.71429" x2="76.2136" y2="4.71429" gradientUnits="userSpaceOnUse">
<stop stop-color="#00B4E6"/>
<stop offset="1" stop-color="#088CCB"/>
</linearGradient>
<clipPath id="clip0_462_3376">
<rect width="77" height="22" fill="white"/>
</clipPath>
</defs>
</svg>
