<svg width="18" height="20" viewBox="0 0 18 20" fill="none" xmlns="http://www.w3.org/2000/svg">
<path d="M11.6016 0C11.8878 0.114474 12.202 0.187854 12.4541 0.351738C12.9664 0.684396 13.1869 1.19317 13.2014 1.78755C13.2054 1.96269 13.2019 2.13831 13.2019 2.34329C13.2801 2.34329 13.3498 2.34329 13.4199 2.34329C14.3266 2.34329 15.2337 2.33937 16.1404 2.34427C17.011 2.34867 17.681 2.83053 17.9251 3.61473C18.1837 4.44589 17.7532 5.35581 16.9298 5.69923C16.81 5.74913 16.7594 5.80538 16.7488 5.93649C16.6381 7.30479 16.5193 8.67261 16.402 10.0409C16.2742 11.5384 16.1454 13.0363 16.0181 14.5338C15.9179 15.7137 15.8101 16.8932 15.7249 18.0746C15.6783 18.7213 15.4919 19.2854 14.922 19.6758C14.6063 19.8925 14.2534 19.9967 13.8715 19.9972C10.6238 19.9991 7.3766 20.0031 4.12889 19.9957C3.15659 19.9938 2.40831 19.3289 2.31509 18.3848C2.1953 17.174 2.10208 15.9608 1.99834 14.748C1.88256 13.3929 1.76679 12.0378 1.65202 10.6827C1.53925 9.35358 1.42849 8.02441 1.31622 6.69525C1.29367 6.42961 1.27662 6.1625 1.23904 5.89882C1.23001 5.83376 1.16536 5.74913 1.10371 5.72173C0.18303 5.31324 -0.228947 4.36076 0.127398 3.44693C0.385511 2.78553 1.06562 2.34867 1.86001 2.34475C2.76014 2.34035 3.66028 2.34378 4.56092 2.34378C4.63259 2.34378 4.70476 2.34378 4.82003 2.34378C4.82003 2.07031 4.79397 1.80957 4.82504 1.55518C4.92328 0.744079 5.50215 0.167797 6.32711 0.0283738C6.35217 0.023971 6.37572 0.00978408 6.39978 0C8.13339 0 9.86751 0 11.6016 0ZM2.45091 5.86751C2.55917 7.15754 2.66542 8.42801 2.77318 9.69847C2.90048 11.1959 3.02978 12.6934 3.15709 14.1913C3.26935 15.5141 3.37611 16.8369 3.49238 18.1593C3.53599 18.6558 3.74298 18.8275 4.2582 18.8275C7.4187 18.8275 10.5792 18.8275 13.7397 18.8275C13.7998 18.8275 13.86 18.8295 13.9196 18.8255C14.2213 18.806 14.4429 18.6088 14.4875 18.3168C14.504 18.2077 14.513 18.0971 14.5221 17.9871C14.6078 16.9759 14.692 15.9642 14.7777 14.9525C14.8924 13.5974 15.0082 12.2428 15.1235 10.8877C15.2242 9.70776 15.326 8.5278 15.4262 7.34833C15.4678 6.85815 15.5069 6.36797 15.548 5.86849H2.45091V5.86751ZM8.99995 4.68755C11.341 4.68755 13.6816 4.68755 16.0226 4.68755C16.1028 4.68755 16.1835 4.69147 16.2627 4.68266C16.6752 4.63765 16.9222 4.21841 16.7448 3.85737C16.6125 3.58831 16.3744 3.51346 16.0838 3.51346C11.3621 3.5164 6.64035 3.51542 1.91865 3.51591C1.85851 3.51591 1.79836 3.51395 1.73872 3.52031C1.43099 3.55407 1.19894 3.80454 1.19894 4.101C1.19894 4.39697 1.43049 4.64939 1.73772 4.68217C1.81691 4.69049 1.8976 4.68706 1.97779 4.68706C4.31884 4.68706 6.6594 4.68706 9.00045 4.68706L8.99995 4.68755ZM12.0016 2.33644C12.0016 2.1525 12.0031 1.98421 12.0016 1.81641C11.9971 1.41038 11.758 1.17507 11.3425 1.17262C10.8894 1.16969 10.4364 1.17213 9.98328 1.17213C8.87716 1.17213 7.77154 1.17115 6.66541 1.17262C6.30556 1.17311 6.04394 1.3639 6.01086 1.67406C5.9873 1.89028 6.00635 2.11092 6.00635 2.33644H12.0021H12.0016Z" fill="#1D1D1B"/>
<path d="M6.59675 16.9832C6.6168 17.4504 6.22487 17.7772 5.79033 17.6143C5.54926 17.5238 5.41745 17.3438 5.40091 17.0947C5.31771 15.836 5.23953 14.5768 5.15884 13.3176C5.05709 11.7208 4.95485 10.1246 4.85311 8.5278C4.83507 8.24211 4.81051 7.9569 4.80149 7.67072C4.79046 7.30822 5.03955 7.04111 5.38237 7.03182C5.71616 7.02301 5.97678 7.27006 5.99883 7.61984C6.13515 9.76794 6.26947 11.9165 6.4063 14.0646C6.46744 15.0254 6.53159 15.9857 6.59625 16.9827L6.59675 16.9832Z" fill="#1D1D1B"/>
<path d="M11.4077 16.9274C11.5355 14.9413 11.6633 12.9556 11.7906 10.9694C11.8617 9.85942 11.9309 8.74941 12.0001 7.6399C12.0281 7.18934 12.4306 6.91588 12.8315 7.07731C13.0791 7.17662 13.216 7.40068 13.1979 7.70986C13.1583 8.40452 13.1112 9.09871 13.0666 9.79338C12.9914 10.968 12.9162 12.143 12.8411 13.3176C12.7609 14.5768 12.6827 15.836 12.599 17.0947C12.5769 17.4303 12.3033 17.6671 11.9755 17.6534C11.6472 17.6392 11.4062 17.3834 11.4027 17.0444C11.4027 17.0052 11.4027 16.9666 11.4027 16.9274H11.4077Z" fill="#1D1D1B"/>
<path d="M8.40003 12.3235C8.40003 10.7742 8.39852 9.22492 8.40103 7.67561C8.40153 7.21723 8.78694 6.92468 9.19541 7.06753C9.43899 7.15265 9.5688 7.32974 9.59687 7.57777C9.60438 7.64234 9.60038 7.7079 9.60038 7.77296C9.60038 10.8192 9.60038 13.866 9.60038 16.9123C9.60038 17.3809 9.37935 17.6534 8.99995 17.6534C8.62055 17.6534 8.39953 17.3809 8.39953 16.9123C8.39953 15.3825 8.39953 13.8528 8.39953 12.323L8.40003 12.3235Z" fill="#1D1D1B"/>
</svg>
