<svg width="25" height="22" viewBox="0 0 25 22" fill="none" xmlns="http://www.w3.org/2000/svg">
<path d="M24.9993 17.4862C24.8643 17.667 24.7482 17.8661 24.5923 18.0246C23.3955 19.2394 22.1914 20.4469 20.9887 21.6559C20.5295 22.1169 20.1577 22.1149 19.6946 21.6486C18.4579 20.4044 17.2219 19.1595 15.9833 17.9178C15.7948 17.7292 15.6683 17.519 15.6989 17.2446C15.7315 16.9525 15.8822 16.7371 16.1601 16.6349C16.4425 16.5314 16.7086 16.576 16.9297 16.7875C17.1945 17.0416 17.4502 17.3055 17.7092 17.5655C18.2734 18.1326 18.8369 18.6997 19.4011 19.2662C19.4559 19.3212 19.5152 19.3729 19.602 19.4535V2.55764C19.5218 2.62968 19.4585 2.68141 19.4011 2.73839C18.5949 3.54782 17.7887 4.35725 16.9852 5.16864C16.7569 5.39916 16.4881 5.48036 16.1829 5.37951C15.9044 5.28717 15.7446 5.07761 15.7028 4.78423C15.6676 4.54061 15.7465 4.3304 15.9168 4.15882C17.2102 2.85561 18.5023 1.55175 19.8003 0.253781C20.1355 -0.0815169 20.5504 -0.0854462 20.883 0.247232C22.1816 1.54455 23.475 2.84775 24.7645 4.15423C24.8637 4.25509 24.9224 4.39654 25 4.519V4.86281C24.6497 5.5393 24.1514 5.61265 23.6094 5.06779C22.8443 4.29831 22.0792 3.52817 21.3141 2.75934C21.2535 2.69844 21.1889 2.64147 21.0976 2.55568V19.4483C21.1889 19.3631 21.2535 19.3055 21.3141 19.2446C22.1138 18.4404 22.9121 17.6349 23.7138 16.8327C24.034 16.5124 24.4919 16.4948 24.7782 16.7967C24.8702 16.8936 24.9269 17.0252 24.9993 17.1411V17.4862Z" fill="black"/>
<path d="M6.61701 4.63426C4.71309 4.63426 2.80918 4.63492 0.904611 4.6323C0.767639 4.6323 0.624144 4.62837 0.495651 4.58842C0.179962 4.49019 -0.018974 4.17585 0.00385469 3.85037C0.0266834 3.52359 0.264102 3.24919 0.590227 3.18501C0.69263 3.16471 0.800251 3.16144 0.905263 3.16144C4.71309 3.16013 8.52158 3.16013 12.3294 3.16144C12.4188 3.16144 12.5094 3.16144 12.5968 3.17519C12.9777 3.23479 13.2445 3.55306 13.2315 3.92503C13.2184 4.3101 12.923 4.61658 12.5238 4.62837C12.0685 4.64212 11.6126 4.63361 11.1567 4.63361C9.64345 4.63361 8.12957 4.63361 6.61636 4.63361L6.61701 4.63426Z" fill="black"/>
<path d="M6.64179 17.3716C8.53788 17.3716 10.4333 17.3716 12.3294 17.3729C12.4507 17.3729 12.576 17.3723 12.6934 17.3998C13.0077 17.4745 13.2328 17.779 13.2321 18.1051C13.2321 18.4319 13.0084 18.7318 12.6921 18.8091C12.5753 18.8379 12.4507 18.8438 12.3294 18.8438C8.52158 18.8458 4.71309 18.8458 0.905263 18.8438C0.783945 18.8438 0.659365 18.8379 0.542612 18.8091C0.209965 18.7272 -0.0196263 18.3978 0.00385469 18.056C0.0273357 17.7102 0.29541 17.4227 0.637841 17.3815C0.734374 17.3697 0.832863 17.3716 0.930049 17.3716C2.83396 17.3716 4.73788 17.3716 6.64245 17.3716H6.64179Z" fill="black"/>
<path d="M6.61049 9.37558C4.70788 9.37558 2.80526 9.37558 0.902654 9.37427C0.789815 9.37427 0.673715 9.37034 0.564789 9.34414C0.202138 9.25573 -0.0333235 8.91978 0.00450694 8.56156C0.0429896 8.1968 0.336502 7.92306 0.708284 7.90407C0.757202 7.90145 0.806121 7.9021 0.854388 7.9021C4.69222 7.9021 8.5294 7.9021 12.3672 7.90276C12.4722 7.90276 12.5812 7.90079 12.6823 7.92568C13.0175 8.00754 13.2491 8.33039 13.2302 8.67289C13.2106 9.03373 12.9327 9.32581 12.561 9.36968C12.4807 9.37951 12.3985 9.37558 12.317 9.37558C10.4144 9.37558 8.51179 9.37558 6.60918 9.37558H6.61049Z" fill="black"/>
<path d="M6.60592 14.1031C4.6707 14.1031 2.73547 14.1045 0.800903 14.1018C0.221054 14.1012 -0.146163 13.6054 0.0560346 13.1012C0.170178 12.8176 0.391943 12.669 0.689369 12.6329C0.761768 12.6244 0.835472 12.629 0.908524 12.629C4.71375 12.629 8.51897 12.629 12.3235 12.629C12.3725 12.629 12.4214 12.6277 12.4696 12.629C12.9151 12.6441 13.2413 12.9682 13.2308 13.3861C13.221 13.7993 12.904 14.0992 12.4586 14.1005C11.1254 14.1038 9.7915 14.1018 8.45831 14.1018C7.84063 14.1018 7.2223 14.1018 6.60462 14.1018L6.60592 14.1031Z" fill="black"/>
</svg>
