

<svg xmlns="http://www.w3.org/2000/svg" xmlns:xlink="http://www.w3.org/1999/xlink">

	<symbol id="logo">
		<path d="M8.50287 0.236908C12.3777 0.236908 14.528 2.369 14.528 6.18091V13.1371C14.528 16.9598 12.3668 19.0811 8.50287 19.0811H4.50794V29.7416H0V0.247676H8.50287V0.236908ZM10.3912 7.27926C10.3912 4.91027 9.04862 3.5858 6.6473 3.5858H4.50794V15.6569H6.6473C9.05954 15.6569 10.3912 14.3324 10.3912 11.9634V7.29003V7.27926Z" fill="currentColor"/>
		<path d="M25.0497 0.247681C28.9246 0.247681 31.0749 2.37977 31.0749 6.19169V13.1479C31.0749 15.3123 30.3545 16.9167 29.0447 17.9182C30.2017 18.5643 30.8238 19.7595 30.8238 21.4501V29.7631H26.687V21.4501C26.687 19.9426 25.8356 19.1027 24.3075 19.1027H21.0439V29.7631H16.5469V0.247681H25.0497ZM26.9381 7.29004C26.9381 4.92105 25.5955 3.59657 23.1942 3.59657H21.0548V15.6676H23.1942C25.6064 15.6676 26.9381 14.3432 26.9381 11.9742V7.3008V7.29004Z" fill="currentColor"/>
		<path d="M33.7832 29.7631V0.247681H38.2802V29.7631H33.7832Z" fill="currentColor"/>
		<path d="M54.7488 3.05176e-05V3.38122H46.497V12.2865H54.0175V15.8615H46.497V25.9728H54.7488V29.5478H42V0.0323349L54.7488 3.05176e-05Z" fill="currentColor"/>
		<path d="M62.4672 3.34889C60.7862 3.34889 59.8475 4.27495 59.8475 5.93324C59.8475 9.97129 61.7031 11.5327 65.9382 15.7215C70.1732 19.9103 69.6711 23.733 69.6711 23.733C69.6711 27.7602 67.3899 30.0108 63.3076 30.0108H61.7795C57.6973 30.0108 55.416 27.7602 55.416 23.733V20.944H59.5092V23.733C59.5092 25.4666 60.4806 26.425 62.238 26.425C63.9953 26.425 64.9667 25.4559 64.9667 23.733C64.9667 23.733 65.1632 20.8686 62.7619 18.4889C60.3496 16.1091 55.416 12.6633 55.416 5.95478C55.416 2.13209 57.5772 0.0107727 61.4412 0.0107727H62.8929C66.7677 0.0107727 68.918 2.14286 68.918 5.95478V9.17445H65.0759V5.93324C65.0759 4.27495 64.1372 3.34889 62.4563 3.34889H62.4672Z" fill="currentColor"/>
		<path d="M70 0.226135H84.7136V3.59656H79.6053V29.7739H75.1083V3.58579H70V0.226135Z" fill="currentColor"/>
		<path d="M93.9886 0.247681L98.9986 29.7631H94.1741L93.5738 25.5851H87.7451L87.1448 29.7631H82.3203L87.3194 0.247681H93.9886ZM92.9625 21.4178L90.7031 5.85787C90.7031 5.79327 90.6049 5.79327 90.594 5.85787L88.3345 21.4178H92.9516H92.9625Z" fill="currentColor"/>
	</symbol>

	<symbol id="search" >
		<path fill-rule="evenodd" clip-rule="evenodd" d="M10.2459 0.849976C4.58495 0.849976 0 5.44915 0 11.1281C0 16.8071 4.58495 21.4063 10.2459 21.4063C12.8732 21.4063 15.2558 20.408 17.0651 18.7814L22.9462 24.6809C23.0571 24.7922 23.2031 24.85 23.3429 24.85C23.4767 24.85 23.6345 24.7961 23.742 24.6784C23.8914 24.5268 23.94 24.3181 23.8878 24.1294H24L17.8672 17.9773C19.4967 16.1618 20.4918 13.7635 20.4918 11.1281C20.4918 5.44915 15.9069 0.849976 10.2459 0.849976ZM1.13043 11.1281C1.13043 6.0822 5.21551 1.98415 10.2459 1.98415C15.2763 1.98415 19.3614 6.0822 19.3614 11.1281C19.3614 16.174 15.2763 20.2721 10.2459 20.2721C5.2156 20.2721 1.13043 16.1658 1.13043 11.1281Z" fill="currentColor"/>
	</symbol>

	<symbol id="person">
		<path d="M1.51705 25C1.10262 24.8075 0.992307 24.4769 1.00041 24.0325C1.0833 19.7256 4.35142 15.8981 8.57181 15.2037C9.09842 15.1169 9.63688 15.0806 10.171 15.0688C11.1108 15.0475 12.0524 15.0363 12.9916 15.0688C16.6075 15.1956 19.2505 16.9175 20.9762 20.08C21.648 21.3113 21.9385 22.655 21.9983 24.0556C22.017 24.495 21.8849 24.8119 21.4829 25H1.51705ZM2.38706 23.5806H20.5556C20.5487 23.4825 20.5481 23.3975 20.5369 23.3137C20.4091 22.3456 20.1392 21.4187 19.66 20.5675C18.322 18.1894 16.3171 16.7794 13.5949 16.52C12.508 16.4163 11.4056 16.4744 10.3099 16.4719C9.92231 16.4706 9.52844 16.4719 9.14766 16.5325C5.99296 17.0387 3.88152 18.8269 2.80274 21.835C2.60518 22.385 2.52665 22.9788 2.38706 23.58V23.5806Z" fill="black"/>
		<path d="M12.0132 1C12.4893 1.10375 12.9785 1.16813 13.4397 1.31688C16.18 2.20063 18.0079 4.91125 17.7866 7.72937C17.5517 10.7231 15.406 13.0975 12.508 13.5706C8.93016 14.155 5.60719 11.5919 5.23763 7.9625C4.88676 4.51813 7.39082 1.40688 10.8073 1.04062C10.8677 1.03437 10.9269 1.01375 10.9868 1C11.3289 1 11.671 1 12.0132 1ZM16.3981 7.33687C16.4025 4.62625 14.21 2.4125 11.5146 2.40625C8.81611 2.4 6.61056 4.6 6.60184 7.30688C6.59311 10.0288 8.79118 12.2481 11.4965 12.25C14.1932 12.2519 16.3937 10.0456 16.3981 7.3375V7.33687Z" fill="black"/>
		<path d="M1.51705 25C1.10262 24.8075 0.992307 24.4769 1.00041 24.0325C1.0833 19.7256 4.35142 15.8981 8.57181 15.2037C9.09842 15.1169 9.63688 15.0806 10.171 15.0688C11.1108 15.0475 12.0524 15.0363 12.9916 15.0688C16.6075 15.1956 19.2505 16.9175 20.9762 20.08C21.648 21.3113 21.9385 22.655 21.9983 24.0556C22.017 24.495 21.8849 24.8119 21.4829 25H1.51705ZM2.38706 23.5806H20.5556C20.5487 23.4825 20.5481 23.3975 20.5369 23.3137C20.4091 22.3456 20.1392 21.4187 19.66 20.5675C18.322 18.1894 16.3171 16.7794 13.5949 16.52C12.508 16.4163 11.4056 16.4744 10.3099 16.4719C9.92231 16.4706 9.52844 16.4719 9.14766 16.5325C5.99296 17.0387 3.88152 18.8269 2.80274 21.835C2.60518 22.385 2.52665 22.9788 2.38706 23.58V23.5806Z" stroke="white" stroke-width="0.3"/>
		<path d="M12.0132 1C12.4893 1.10375 12.9785 1.16813 13.4397 1.31688C16.18 2.20063 18.0079 4.91125 17.7866 7.72937C17.5517 10.7231 15.406 13.0975 12.508 13.5706C8.93016 14.155 5.60719 11.5919 5.23763 7.9625C4.88676 4.51813 7.39082 1.40688 10.8073 1.04062C10.8677 1.03437 10.9269 1.01375 10.9868 1C11.3289 1 11.671 1 12.0132 1ZM16.3981 7.33687C16.4025 4.62625 14.21 2.4125 11.5146 2.40625C8.81611 2.4 6.61056 4.6 6.60184 7.30688C6.59311 10.0288 8.79118 12.2481 11.4965 12.25C14.1932 12.2519 16.3937 10.0456 16.3981 7.3375V7.33687Z" stroke="white" stroke-width="0.3"/>
	</symbol>

	<symbol id="person-solid">
		<path d="M1.51705 25C1.10262 24.8075 0.992307 24.4769 1.00041 24.0325C1.0833 19.7256 4.35142 15.8981 8.57181 15.2037C9.09842 15.1169 9.63688 15.0806 10.171 15.0688C11.1108 15.0475 12.0524 15.0363 12.9916 15.0688C16.6075 15.1956 19.2505 16.9175 20.9762 20.08C21.648 21.3113 21.9385 22.655 21.9983 24.0556C22.017 24.495 21.8849 24.8119 21.4829 25H1.51705Z" fill="black"/>
		<path d="M12.0132 1C12.4893 1.10375 12.9785 1.16813 13.4397 1.31688C16.18 2.20063 18.0079 4.91125 17.7866 7.72937C17.5517 10.7231 15.406 13.0975 12.508 13.5706C8.93016 14.155 5.60719 11.5919 5.23763 7.9625C4.88676 4.51813 7.39082 1.40688 10.8073 1.04062C10.8677 1.03437 10.9269 1.01375 10.9868 1C11.3289 1 11.671 1 12.0132 1Z" fill="black"/>
		<path d="M1.51705 25C1.10262 24.8075 0.992307 24.4769 1.00041 24.0325C1.0833 19.7256 4.35142 15.8981 8.57181 15.2037C9.09842 15.1169 9.63688 15.0806 10.171 15.0688C11.1108 15.0475 12.0524 15.0363 12.9916 15.0688C16.6075 15.1956 19.2505 16.9175 20.9762 20.08C21.648 21.3113 21.9385 22.655 21.9983 24.0556C22.017 24.495 21.8849 24.8119 21.4829 25H1.51705Z" stroke="white" stroke-width="0.3"/>
		<path d="M12.0132 1C12.4893 1.10375 12.9785 1.16813 13.4397 1.31688C16.18 2.20063 18.0079 4.91125 17.7866 7.72937C17.5517 10.7231 15.406 13.0975 12.508 13.5706C8.93016 14.155 5.60719 11.5919 5.23763 7.9625C4.88676 4.51813 7.39082 1.40688 10.8073 1.04062C10.8677 1.03437 10.9269 1.01375 10.9868 1C11.3289 1 11.671 1 12.0132 1Z" stroke="white" stroke-width="0.3"/>
	</symbol>

	<symbol id="heart">
		<path d="M1.56063 8.81567C1.74679 9.63154 2.17598 10.3507 2.59128 11.0465C2.6047 11.069 2.61811 11.0914 2.63149 11.1139L2.6315 11.1139C4.9066 14.9274 7.9939 18.012 11.764 20.4783C11.8378 20.5267 11.9133 20.5607 11.9967 20.5604C12.081 20.56 12.1554 20.5247 12.2271 20.4729L12.2272 20.4727C12.5053 20.2705 12.7885 20.0714 13.0724 19.8718C13.6154 19.49 14.1612 19.1063 14.6793 18.6947L14.6793 18.6947C17.493 16.458 19.7978 13.8102 21.5762 10.738C22.3629 9.37908 22.8303 7.95007 22.5943 6.36667C22.2892 4.32026 21.2505 2.71049 19.2773 1.80122L19.2354 1.89204L19.2772 1.80122C17.3624 0.919145 15.4906 1.14753 13.7967 2.36619L13.7967 2.36621C13.4016 2.65071 13.0687 3.02149 12.7478 3.37888C12.6805 3.45384 12.6138 3.5282 12.5471 3.60106C12.3565 3.80909 12.1628 3.90292 11.9836 3.90333C11.8057 3.90374 11.6178 3.81206 11.4374 3.59717C11.3891 3.5391 11.3416 3.48067 11.2954 3.42181C10.8461 2.84868 10.3095 2.3596 9.65246 2.00709L9.65244 2.00708C7.82129 1.02496 5.96243 1.00695 4.17756 2.07774L4.17754 2.07775C2.22854 3.24752 1.39703 5.04246 1.30616 7.37755L1.30321 7.4535L1.31949 7.45872C1.33338 7.54168 1.34793 7.63422 1.36359 7.73385C1.41324 8.04966 1.47409 8.43671 1.56063 8.81567ZM1.56063 8.81567L1.65812 8.79343L1.56063 8.81567ZM23.9 6.73575V7.7081C23.8738 7.85099 23.8498 7.99288 23.826 8.1339C23.7733 8.44622 23.7213 8.75432 23.6467 9.05978C23.386 10.1227 22.8285 11.0658 22.2459 12.0072C19.8331 15.9042 16.6387 19.0872 12.704 21.5902L12.704 21.5903C12.6571 21.6201 12.6087 21.6483 12.5584 21.6777L12.5577 21.6781C12.5081 21.707 12.4566 21.737 12.4061 21.7692L12.406 21.7692C12.2623 21.8609 12.1253 21.9013 11.9914 21.9C11.8569 21.8986 11.7173 21.8552 11.5689 21.7661C10.2125 20.9516 8.9475 20.0182 7.75509 18.9943L7.68994 19.0702L7.75508 18.9943C5.16604 16.7717 2.99063 14.2301 1.31904 11.3009L1.31904 11.3009C0.803192 10.3971 0.351854 9.48237 0.203137 8.46964L0.203136 8.46963C-0.0110067 7.01237 0.105344 5.67617 0.579958 4.48165C1.05443 3.28749 1.88931 2.22892 3.12175 1.33005L3.12176 1.33004C5.68692 -0.541212 9.33461 -0.235761 11.6054 1.96276L11.6054 1.96283C11.6726 2.02773 11.7387 2.09316 11.8099 2.16364C11.8428 2.19626 11.8768 2.22996 11.9126 2.26519L11.9793 2.331L12.0493 2.26862C12.0698 2.25037 12.0906 2.23231 12.1113 2.21435C12.1519 2.17923 12.192 2.14449 12.2281 2.10938L12.2287 2.10876C13.402 0.948857 14.8161 0.261742 16.4973 0.128829L16.4895 0.0291398L16.4973 0.128828C17.8889 0.0186404 19.1997 0.307328 20.3805 1.01942C22.4967 2.29591 23.6111 4.16864 23.8647 6.54103C23.8702 6.59186 23.8813 6.64512 23.8911 6.69213C23.8943 6.70743 23.8973 6.72207 23.9 6.73575Z" fill="currentColor" stroke="#000" stroke-width="0.2"/>
	</symbol>

	<symbol id="heart-solid">
		<path d="M12.704 21.5902L12.704 21.5903C12.6571 21.6201 12.6087 21.6483 12.5584 21.6777C12.5086 21.7067 12.4568 21.7369 12.4061 21.7692L12.406 21.7692C12.2623 21.8609 12.1253 21.9013 11.9914 21.9C11.8569 21.8986 11.7173 21.8552 11.5689 21.7661C10.2125 20.9516 8.9475 20.0182 7.75509 18.9943L7.68994 19.0702L7.75508 18.9943C5.16604 16.7717 2.99063 14.2301 1.31904 11.3009L1.31904 11.3009C0.803192 10.3971 0.351854 9.48237 0.203137 8.46964L0.203136 8.46963C-0.0110067 7.01237 0.105344 5.67617 0.579958 4.48165C1.05443 3.28749 1.88931 2.22892 3.12175 1.33005L3.12176 1.33004C5.68692 -0.541212 9.33461 -0.235761 11.6054 1.96276L11.6054 1.96283C11.6726 2.02774 11.7387 2.09319 11.8099 2.1637C11.8428 2.1963 11.8769 2.22998 11.9126 2.26519L11.9793 2.331L12.0493 2.26862C12.0698 2.25037 12.0906 2.23231 12.1114 2.21435C12.1519 2.17923 12.192 2.14448 12.2281 2.10938L12.2287 2.10876C13.402 0.948857 14.8161 0.261742 16.4973 0.128829L16.4895 0.0291398L16.4973 0.128828C17.8889 0.0186404 19.1997 0.307328 20.3805 1.01942C22.4967 2.29591 23.6111 4.16864 23.8647 6.54103C23.8702 6.59186 23.8813 6.64512 23.8911 6.69212C23.8943 6.70743 23.8973 6.72207 23.9 6.73575V7.7081C23.8738 7.85098 23.8498 7.99285 23.826 8.13386C23.7733 8.4462 23.7213 8.75431 23.6467 9.05978C23.386 10.1227 22.8285 11.0658 22.2459 12.0072C19.8331 15.9042 16.6387 19.0872 12.704 21.5902Z" fill="currentColor" stroke="white" stroke-width="0.2"/>
	</symbol>

	<symbol id="bag">
		<path d="M0.407842 24C0.0790988 23.8363 -0.0440211 23.5919 0.013731 23.2175C0.159698 22.2688 0.275837 21.3151 0.402764 20.3632C0.725796 17.9489 1.04629 15.5346 1.37122 13.1203C1.72789 10.4666 2.08836 7.81292 2.44567 5.15924C2.50659 4.70613 2.68493 4.54363 3.14377 4.54301C4.22075 4.54238 5.2971 4.54301 6.37408 4.54301C6.45912 4.54301 6.54416 4.54301 6.63936 4.54301C6.64888 4.35426 6.65142 4.19052 6.66665 4.02802C6.83673 2.20557 7.7925 0.953725 9.50475 0.270618C9.82969 0.141246 10.1857 0.0881227 10.5272 0C10.8438 0 11.1605 0 11.4772 0C11.5204 0.0143746 11.5629 0.0356241 11.6073 0.0431239C13.4313 0.360616 14.6339 1.38934 15.1765 3.13242C15.3136 3.57366 15.3307 4.05114 15.4082 4.54301C15.4596 4.54301 15.5446 4.54301 15.6296 4.54301C16.7301 4.54301 17.8306 4.54176 18.931 4.54426C19.2826 4.54488 19.5022 4.72988 19.5479 5.06674C19.7396 6.47483 19.9287 7.88292 20.1172 9.29101C20.425 11.5891 20.7309 13.8871 21.0387 16.1852C21.3516 18.522 21.6606 20.8595 21.9868 23.1944C22.0395 23.5731 21.9392 23.8319 21.5953 24H0.407842ZM20.7855 22.8669C20.7766 22.7894 20.7715 22.735 20.7639 22.6813C20.5665 21.2188 20.3685 19.757 20.1724 18.2945C19.8951 16.229 19.6196 14.1628 19.3423 12.0966C19.0649 10.031 18.7838 7.96542 18.5115 5.89922C18.4887 5.72735 18.4449 5.66173 18.2558 5.66423C17.3616 5.67485 16.4667 5.6686 15.5719 5.66923C15.5034 5.66923 15.4348 5.67735 15.3491 5.68298C15.3491 6.18546 15.3574 6.6692 15.3466 7.15231C15.3384 7.5123 15.1023 7.74167 14.7742 7.73917C14.4454 7.73667 14.2208 7.50605 14.2131 7.14231C14.2049 6.73607 14.2112 6.32983 14.21 5.9236C14.21 5.84235 14.2011 5.76048 14.1966 5.68298H7.79059C7.79059 5.78172 7.79059 5.8661 7.79059 5.9511C7.79059 6.34921 7.79631 6.74795 7.78742 7.14606C7.77917 7.50855 7.55197 7.73855 7.22259 7.73917C6.89575 7.73917 6.66538 7.50918 6.65332 7.14794C6.64253 6.82045 6.65015 6.49171 6.65015 6.16359C6.65015 6.00359 6.65015 5.84297 6.65015 5.68423H3.52201C2.75156 11.4172 1.98301 17.1364 1.21256 22.8663H20.7848L20.7855 22.8669ZM14.1833 4.53176C14.3572 3.50053 13.7194 2.24494 12.7154 1.61621C11.6308 0.937476 10.2359 0.954975 9.18426 1.68808C8.19803 2.37556 7.75569 3.33241 7.79694 4.53176H14.1833Z" fill="currentColor"/>
	</symbol>

	<symbol id="bag-solid">
		<path d="M0.407842 24C0.0790988 23.8363 -0.0440211 23.5919 0.013731 23.2175C0.159698 22.2688 0.275837 21.3151 0.402764 20.3632C0.725796 17.9489 1.04629 15.5346 1.37122 13.1203C1.72789 10.4666 2.08836 7.81292 2.44567 5.15924C2.50659 4.70613 2.68493 4.54363 3.14377 4.54301C4.22075 4.54238 5.2971 4.54301 6.37408 4.54301C6.45912 4.54301 6.54416 4.54301 6.63936 4.54301C6.64888 4.35426 6.65142 4.19052 6.66665 4.02802C6.83673 2.20557 7.7925 0.953725 9.50475 0.270618C9.82969 0.141246 10.1857 0.0881227 10.5272 0C10.8438 0 11.1605 0 11.4772 0C11.5204 0.0143746 11.5629 0.0356241 11.6073 0.0431239C13.4313 0.360616 14.6339 1.38934 15.1765 3.13242C15.3136 3.57366 15.3307 4.05114 15.4082 4.54301C15.4596 4.54301 15.5446 4.54301 15.6296 4.54301C16.7301 4.54301 17.8306 4.54176 18.931 4.54426C19.2826 4.54488 19.5022 4.72988 19.5479 5.06674C19.7396 6.47483 19.9287 7.88292 20.1172 9.29101C20.425 11.5891 20.7309 13.8871 21.0387 16.1852C21.3516 18.522 21.6606 20.8595 21.9868 23.1944C22.0395 23.5731 21.9392 23.8319 21.5953 24H0.407842ZM14.1833 4.53176C14.3572 3.50053 13.7194 2.24494 12.7154 1.61621C11.6308 0.937476 10.2359 0.954975 9.18426 1.68808C8.19803 2.37556 7.75569 3.33241 7.79694 4.53176H14.1833Z" fill="#1D1D1B"/>
	</symbol>

	<symbol id="arrow-right" width="28" height="14" viewBox="0 0 28 14" fill="currentColor" xmlns="http://www.w3.org/2000/svg">
		<path d="M27.8875 6.73179L20.6616 0.120716C20.4867 -0.036471 20.1877 -0.0375976 20.0193 0.10244C19.8482 0.244733 19.8356 0.505954 19.9981 0.655481L26.5042 6.61031H0.451615C0.202188 6.61031 0 6.78441 0 6.99919C0 7.21397 0.202188 7.38808 0.451615 7.38808H26.5042L19.9981 13.3429C19.8355 13.4924 19.8455 13.7559 20.0193 13.8959C20.193 14.0359 20.4725 14.0394 20.6616 13.8776L27.8875 7.2666C28.0592 7.0846 28.0141 6.86152 27.8875 6.73179Z" fill="currentColor"/>
	</symbol>

	<symbol id="check-icon">
		<path d="M12.2373 0L11.356 0.974359C8.96557 3.59956 7.14003 5.79214 4.92145 8.2735L1.60669 5.20511L0 7.29058L0.951532 8.17947L4.1961 11.188L5.06964 12L5.88078 11.1111C8.56877 8.15915 10.4822 5.80136 13.1187 2.90598L14 1.93162L12.2373 0Z" fill="currentColor"/>
	</symbol>


	<symbol id="chevron-right" >
	<path fill-rule="evenodd" d="M4.646 1.646a.5.5 0 0 1 .708 0l6 6a.5.5 0 0 1 0 .708l-6 6a.5.5 0 0 1-.708-.708L10.293 8 4.646 2.354a.5.5 0 0 1 0-.708z"/>
	</symbol>

	<symbol id="chevron-left" >
		<path fill-rule="evenodd" d="M11.354 1.646a.5.5 0 0 1 0 .708L5.707 8l5.647 5.646a.5.5 0 0 1-.708.708l-6-6a.5.5 0 0 1 0-.708l6-6a.5.5 0 0 1 .708 0z"/>
	</symbol>
	
	<symbol id="chevron-bottom" >
		<path fill-rule="evenodd" d="M1.646 4.646a.5.5 0 0 1 .708 0L8 10.293l5.646-5.647a.5.5 0 0 1 .708.708l-6 6a.5.5 0 0 1-.708 0l-6-6a.5.5 0 0 1 0-.708z"/>
	</symbol>

	<symbol id="plus-icon" >
		<path fill-rule="evenodd" d="M8 2a.5.5 0 0 1 .5.5v5h5a.5.5 0 0 1 0 1h-5v5a.5.5 0 0 1-1 0v-5h-5a.5.5 0 0 1 0-1h5v-5A.5.5 0 0 1 8 2Z"/>
	</symbol>

	<symbol id="close-icon">
			<path d="M18.9996 18.4395C18.974 18.4901 18.9485 18.5408 18.9238 18.5914C18.7217 19.0027 18.1986 19.1286 17.8335 18.8521C17.764 18.7993 17.7019 18.7358 17.6398 18.6737C15.1457 16.18 12.6516 13.6863 10.1583 11.1916C10.1094 11.1428 10.0703 11.0842 10.0187 11.0212C9.94212 11.0943 9.89148 11.141 9.8426 11.1899C7.33616 13.6959 4.82928 16.202 2.3246 18.7094C2.10311 18.9314 1.85784 19.0608 1.53727 18.9714C1.02779 18.8292 0.833596 18.2343 1.16165 17.819C1.21229 17.7552 1.2713 17.697 1.32898 17.6389C3.81825 15.1487 6.30796 12.6589 8.79854 10.17C8.8483 10.1202 8.90511 10.0784 8.976 10.0181C8.91259 9.95159 8.86724 9.90183 8.82012 9.85427C6.30972 7.34379 3.79976 4.83287 1.28759 2.32416C1.04848 2.08504 0.930472 1.81951 1.0432 1.48439C1.12819 1.23163 1.33251 1.10216 1.56104 1C1.66629 1 1.77197 1 1.87721 1C2.05951 1.13123 2.26383 1.24044 2.42104 1.39676C4.89797 3.86453 7.36919 6.33801 9.8404 8.81194C9.88884 8.86082 9.91966 8.92732 9.95841 8.98588C9.98527 8.98588 10.0121 8.98588 10.039 8.98588C10.0782 8.92776 10.109 8.86082 10.1574 8.81238C12.6287 6.33845 15.0999 3.86497 17.5768 1.3972C17.734 1.24044 17.9383 1.13123 18.1206 1C18.2263 1 18.3316 1 18.4372 1C18.7081 1.10392 18.8956 1.29152 19 1.56278V1.87939C18.8688 2.0617 18.7596 2.26603 18.6033 2.42324C16.1356 4.90025 13.6617 7.37153 11.1883 9.84282C11.1394 9.89126 11.0729 9.92208 11.0144 9.96084C11.0144 9.9877 11.0144 10.0146 11.0148 10.0414C11.0729 10.0806 11.1394 10.1114 11.1883 10.1599C13.6621 12.6307 16.136 15.102 18.6037 17.579C18.76 17.7362 18.8692 17.9406 19 18.1229V18.4395H18.9996Z" fill="black" stroke="white" stroke-width="0.2"/>
	</symbol>	

	<symbol id="mail-icon" >
			<path d="M27.3429 23.3772C27.1576 23.8461 26.8037 24.0007 26.3133 24C17.8836 23.9926 9.45312 23.9946 1.02336 23.9946C0.446703 23.9946 0.159044 23.8241 0.0339454 23.4126C-0.10587 22.9517 0.201189 22.4707 0.680176 22.4085C0.794571 22.3938 0.910972 22.3931 1.02671 22.3931C2.52253 22.3925 4.01769 22.3931 5.51352 22.3931H5.87878C5.77108 22.2814 5.7102 22.2145 5.64598 22.1509C4.20501 20.7093 2.7647 19.2663 1.32105 17.8274C0.732356 17.2407 0.433324 16.5516 0.530325 15.7107C0.597223 15.1287 0.868158 14.6484 1.27489 14.2417C5.76104 9.75149 10.2459 5.26066 14.7407 0.77919C15.7836 -0.261067 17.2193 -0.258391 18.2635 0.77919C20.8712 3.3708 23.4708 5.97044 26.0631 8.57744C27.1214 9.64178 27.092 11.0828 26.0149 12.1611C22.6995 15.4799 19.3814 18.796 16.0626 22.1121C15.9883 22.1864 15.898 22.2446 15.8151 22.3102C15.8291 22.3376 15.8438 22.3644 15.8579 22.3918H16.1643C19.5473 22.3918 22.9296 22.3978 26.3126 22.3851C26.8063 22.3831 27.1549 22.5369 27.3429 23.0026V23.3772ZM2.59278 16.8373C2.67372 16.9289 2.70516 16.9691 2.74062 17.0039C4.50069 18.7559 6.25943 20.5093 8.02687 22.254C8.11316 22.3396 8.27572 22.3851 8.4035 22.3858C10.0144 22.3945 11.626 22.3878 13.2368 22.3958C13.4422 22.3971 13.5827 22.3309 13.7245 22.1884C17.4347 18.4716 21.1488 14.7581 24.8623 11.044C25.362 10.5436 25.364 10.1422 24.8683 9.64646C22.4199 7.19801 19.9714 4.74956 17.5223 2.30178C17.4634 2.24291 17.3992 2.19006 17.3009 2.10109V2.43959C17.3009 4.06854 17.3009 5.6975 17.3009 7.32645C17.3009 9.64111 17.3029 11.9551 17.3002 14.2697C17.2989 15.3006 16.868 16.0853 15.9469 16.5777C15.5428 16.7938 15.1013 16.8359 14.6531 16.8359C10.763 16.8359 6.87288 16.8359 2.98346 16.8359H2.59278V16.8373ZM15.6987 2.22886C11.363 6.54108 7.00735 10.8727 2.62221 15.2344H2.93529C6.84144 15.2344 10.7483 15.2344 14.6544 15.2344C15.4124 15.2344 15.6987 14.9461 15.6987 14.1855C15.6987 10.2699 15.6987 6.3551 15.6987 2.43959V2.22886Z" fill="#1D1D1B"/>
	</symbol>

	<symbol id="filter-icon">
			<path d="M23.9994 16.9584C23.8221 17.3778 23.5145 17.5211 23.083 17.5124C22.0603 17.4914 21.0365 17.5087 20.0132 17.5026C19.8706 17.5019 19.7925 17.5476 19.7191 17.6798C19.6217 17.8546 19.4978 18.0183 19.3633 18.1647C18.9888 18.5724 18.6054 18.9708 18.2221 19.3699C17.4166 20.2075 16.3681 20.2106 15.5603 19.376C15.1699 18.9733 14.7854 18.5644 14.4015 18.1548C14.3087 18.056 14.1919 17.9578 14.1484 17.8349C14.0357 17.5143 13.8144 17.5007 13.5397 17.5007C9.3298 17.5081 5.11936 17.5056 0.909501 17.505C0.785043 17.505 0.656476 17.5106 0.536714 17.4828C0.221459 17.4093 0.000135332 17.101 0.00189653 16.7632C0.00365773 16.4333 0.212653 16.143 0.523799 16.0615C0.642973 16.0306 0.770954 16.0262 0.894825 16.0256C5.15928 16.0238 9.42431 16.0225 13.6888 16.0287C13.8807 16.0287 14.0023 15.9917 14.0927 15.7952C14.1655 15.6371 14.2917 15.5018 14.4109 15.3733C14.7872 14.9675 15.1693 14.5678 15.5527 14.1688C16.367 13.3219 17.4166 13.3244 18.2321 14.1744C18.6096 14.5678 18.9847 14.9632 19.3581 15.3604C19.4567 15.4654 19.58 15.5679 19.6269 15.6976C19.7426 16.0176 19.9645 16.0324 20.2381 16.0287C21.175 16.0157 22.1132 16.0386 23.0495 16.017C23.484 16.0071 23.8057 16.1424 23.9988 16.563V16.9577L23.9994 16.9584ZM16.8918 18.5477C17.0039 18.4785 17.1108 18.4377 17.1847 18.3624C17.5933 17.9442 17.9972 17.5211 18.3965 17.0924C18.6049 16.8682 18.6049 16.6705 18.3976 16.4469C17.999 16.0182 17.5957 15.5939 17.1883 15.1744C16.9869 14.9675 16.792 14.9656 16.5918 15.1713C16.1838 15.5901 15.7811 16.0151 15.3825 16.4438C15.1717 16.6705 15.1717 16.8645 15.3807 17.0887C15.7799 17.5168 16.1826 17.9411 16.5918 18.3593C16.6705 18.4402 16.785 18.4822 16.8918 18.5477Z" fill="black"/>
			<path d="M23.9994 3.44427C23.8074 3.86554 23.4846 3.99217 23.0507 3.9897C20.4888 3.97673 17.9262 3.98538 15.3643 3.97858C15.1852 3.97858 15.0742 4.02059 15.0026 4.20034C14.9621 4.3035 14.8881 4.398 14.8118 4.4783C14.3163 5.00212 13.8367 5.54569 13.3119 6.03553C12.6767 6.62791 11.7074 6.62729 11.0793 6.0343C10.5397 5.52469 10.0466 4.96073 9.53351 4.42024C9.51179 4.39739 9.48419 4.3733 9.4748 4.34365C9.3568 3.96561 9.07794 3.97673 8.76856 3.97797C6.14379 3.98723 3.5196 3.98414 0.894825 3.98229C0.770954 3.98229 0.642973 3.97797 0.523799 3.94708C0.186822 3.85813 -0.029218 3.52643 0.0042448 3.17187C0.0382947 2.81236 0.306584 2.5344 0.651192 2.50722C0.744536 2.49981 0.838466 2.50289 0.932397 2.50289C3.63525 2.50289 6.33811 2.50104 9.04037 2.50722C9.21121 2.50722 9.31923 2.46645 9.38204 2.29411C9.40905 2.21999 9.45954 2.15019 9.51355 2.09212C10.0108 1.55843 10.4875 1.00003 11.0164 0.503393C11.7438 -0.180403 12.6896 -0.163107 13.4123 0.528101C13.8913 0.986436 14.3328 1.48801 14.7901 1.97167C14.8341 2.018 14.8876 2.0668 14.9058 2.12486C15.0331 2.52575 15.3331 2.50784 15.6548 2.5066C18.1311 2.49857 20.6073 2.50907 23.0836 2.49548C23.5145 2.49301 23.8221 2.62952 24 3.04956V3.44427H23.9994ZM13.8831 3.23425C13.8261 3.12616 13.7938 3.01806 13.7269 2.9464C13.3183 2.50536 12.9056 2.06803 12.4865 1.63811C12.2951 1.4423 12.0978 1.44354 11.9082 1.63811C11.4949 2.06309 11.0869 2.49363 10.683 2.92787C10.4851 3.14036 10.484 3.3405 10.6818 3.55422C11.0851 3.98908 11.4937 4.41962 11.907 4.84398C12.099 5.04041 12.2939 5.0398 12.4859 4.84275C12.905 4.41221 13.3183 3.97611 13.7263 3.53446C13.7974 3.45724 13.8297 3.3405 13.8831 3.23487V3.23425Z" fill="black"/>
			<path d="M23.9994 10.3001C23.8127 10.7276 23.491 10.8511 23.056 10.8499C18.6424 10.8388 14.2295 10.8443 9.81589 10.8394C9.64211 10.8394 9.53233 10.8728 9.44956 11.0544C9.37735 11.2131 9.25406 11.3509 9.13489 11.4793C8.74214 11.9031 8.34646 12.3237 7.94256 12.7351C7.15824 13.5351 6.1115 13.532 5.33129 12.7283C4.92915 12.3145 4.53405 11.8938 4.13837 11.4725C4.05089 11.3793 3.94287 11.286 3.90178 11.1705C3.78378 10.8382 3.54837 10.8326 3.26775 10.8369C2.4165 10.8511 1.56525 10.8462 0.713421 10.8394C0.344156 10.8363 0.0647126 10.5763 0.00835426 10.2118C-0.0421335 9.88505 0.140444 9.53667 0.441609 9.42116C0.5555 9.3773 0.685242 9.36495 0.807939 9.36433C1.70615 9.36 2.60436 9.35815 3.50257 9.36556C3.65228 9.3668 3.73916 9.3285 3.81548 9.18087C3.90354 9.01038 4.02624 8.85472 4.15539 8.71451C4.53581 8.30126 4.92445 7.89667 5.31426 7.49269C6.11208 6.66559 7.16 6.66312 7.959 7.48651C8.34939 7.88926 8.7351 8.29756 9.11904 8.70647C9.21767 8.81148 9.34154 8.91464 9.38733 9.04436C9.4977 9.35939 9.71315 9.36618 9.97909 9.36556C14.3375 9.35877 18.6964 9.36556 23.0548 9.35383C23.4916 9.35259 23.8116 9.47737 23.9988 9.90358V10.2983L23.9994 10.3001ZM8.33296 10.1025C8.27014 9.98759 8.23316 9.87455 8.16153 9.79734C7.75881 9.36186 7.35021 8.93132 6.9375 8.50634C6.74964 8.31238 6.54299 8.30559 6.35748 8.49522C5.93714 8.92452 5.52326 9.36 5.11525 9.80228C4.92738 10.0055 4.93032 10.2056 5.11935 10.4107C5.52208 10.8462 5.93068 11.2767 6.34456 11.7011C6.54064 11.9025 6.74553 11.8988 6.9422 11.6962C7.34962 11.2767 7.75235 10.8524 8.14979 10.4225C8.22611 10.3397 8.26779 10.2205 8.33296 10.1037V10.1025Z" fill="black"/>
	</symbol>

	<symbol id="sort-icon">
			<path d="M24.9993 17.4862C24.8643 17.667 24.7482 17.8661 24.5923 18.0246C23.3955 19.2394 22.1914 20.4469 20.9887 21.6559C20.5295 22.1169 20.1577 22.1149 19.6946 21.6486C18.4579 20.4044 17.2219 19.1595 15.9833 17.9178C15.7948 17.7292 15.6683 17.519 15.6989 17.2446C15.7315 16.9525 15.8822 16.7371 16.1601 16.6349C16.4425 16.5314 16.7086 16.576 16.9297 16.7875C17.1945 17.0416 17.4502 17.3055 17.7092 17.5655C18.2734 18.1326 18.8369 18.6997 19.4011 19.2662C19.4559 19.3212 19.5152 19.3729 19.602 19.4535V2.55764C19.5218 2.62968 19.4585 2.68141 19.4011 2.73839C18.5949 3.54782 17.7887 4.35725 16.9852 5.16864C16.7569 5.39916 16.4881 5.48036 16.1829 5.37951C15.9044 5.28717 15.7446 5.07761 15.7028 4.78423C15.6676 4.54061 15.7465 4.3304 15.9168 4.15882C17.2102 2.85561 18.5023 1.55175 19.8003 0.253781C20.1355 -0.0815169 20.5504 -0.0854462 20.883 0.247232C22.1816 1.54455 23.475 2.84775 24.7645 4.15423C24.8637 4.25509 24.9224 4.39654 25 4.519V4.86281C24.6497 5.5393 24.1514 5.61265 23.6094 5.06779C22.8443 4.29831 22.0792 3.52817 21.3141 2.75934C21.2535 2.69844 21.1889 2.64147 21.0976 2.55568V19.4483C21.1889 19.3631 21.2535 19.3055 21.3141 19.2446C22.1138 18.4404 22.9121 17.6349 23.7138 16.8327C24.034 16.5124 24.4919 16.4948 24.7782 16.7967C24.8702 16.8936 24.9269 17.0252 24.9993 17.1411V17.4862Z" fill="black"/>
			<path d="M6.61701 4.63426C4.71309 4.63426 2.80918 4.63492 0.904611 4.6323C0.767639 4.6323 0.624144 4.62837 0.495651 4.58842C0.179962 4.49019 -0.018974 4.17585 0.00385469 3.85037C0.0266834 3.52359 0.264102 3.24919 0.590227 3.18501C0.69263 3.16471 0.800251 3.16144 0.905263 3.16144C4.71309 3.16013 8.52158 3.16013 12.3294 3.16144C12.4188 3.16144 12.5094 3.16144 12.5968 3.17519C12.9777 3.23479 13.2445 3.55306 13.2315 3.92503C13.2184 4.3101 12.923 4.61658 12.5238 4.62837C12.0685 4.64212 11.6126 4.63361 11.1567 4.63361C9.64345 4.63361 8.12957 4.63361 6.61636 4.63361L6.61701 4.63426Z" fill="black"/>
			<path d="M6.64179 17.3716C8.53788 17.3716 10.4333 17.3716 12.3294 17.3729C12.4507 17.3729 12.576 17.3723 12.6934 17.3998C13.0077 17.4745 13.2328 17.779 13.2321 18.1051C13.2321 18.4319 13.0084 18.7318 12.6921 18.8091C12.5753 18.8379 12.4507 18.8438 12.3294 18.8438C8.52158 18.8458 4.71309 18.8458 0.905263 18.8438C0.783945 18.8438 0.659365 18.8379 0.542612 18.8091C0.209965 18.7272 -0.0196263 18.3978 0.00385469 18.056C0.0273357 17.7102 0.29541 17.4227 0.637841 17.3815C0.734374 17.3697 0.832863 17.3716 0.930049 17.3716C2.83396 17.3716 4.73788 17.3716 6.64245 17.3716H6.64179Z" fill="black"/>
			<path d="M6.61049 9.37558C4.70788 9.37558 2.80526 9.37558 0.902654 9.37427C0.789815 9.37427 0.673715 9.37034 0.564789 9.34414C0.202138 9.25573 -0.0333235 8.91978 0.00450694 8.56156C0.0429896 8.1968 0.336502 7.92306 0.708284 7.90407C0.757202 7.90145 0.806121 7.9021 0.854388 7.9021C4.69222 7.9021 8.5294 7.9021 12.3672 7.90276C12.4722 7.90276 12.5812 7.90079 12.6823 7.92568C13.0175 8.00754 13.2491 8.33039 13.2302 8.67289C13.2106 9.03373 12.9327 9.32581 12.561 9.36968C12.4807 9.37951 12.3985 9.37558 12.317 9.37558C10.4144 9.37558 8.51179 9.37558 6.60918 9.37558H6.61049Z" fill="black"/>
			<path d="M6.60592 14.1031C4.6707 14.1031 2.73547 14.1045 0.800903 14.1018C0.221054 14.1012 -0.146163 13.6054 0.0560346 13.1012C0.170178 12.8176 0.391943 12.669 0.689369 12.6329C0.761768 12.6244 0.835472 12.629 0.908524 12.629C4.71375 12.629 8.51897 12.629 12.3235 12.629C12.3725 12.629 12.4214 12.6277 12.4696 12.629C12.9151 12.6441 13.2413 12.9682 13.2308 13.3861C13.221 13.7993 12.904 14.0992 12.4586 14.1005C11.1254 14.1038 9.7915 14.1018 8.45831 14.1018C7.84063 14.1018 7.2223 14.1018 6.60462 14.1018L6.60592 14.1031Z" fill="black"/>
	</symbol>	

	<symbol id="remove-icon" >
			<path d="M11.6016 0C11.8878 0.114474 12.202 0.187854 12.4541 0.351738C12.9664 0.684396 13.1869 1.19317 13.2014 1.78755C13.2054 1.96269 13.2019 2.13831 13.2019 2.34329C13.2801 2.34329 13.3498 2.34329 13.4199 2.34329C14.3266 2.34329 15.2337 2.33937 16.1404 2.34427C17.011 2.34867 17.681 2.83053 17.9251 3.61473C18.1837 4.44589 17.7532 5.35581 16.9298 5.69923C16.81 5.74913 16.7594 5.80538 16.7488 5.93649C16.6381 7.30479 16.5193 8.67261 16.402 10.0409C16.2742 11.5384 16.1454 13.0363 16.0181 14.5338C15.9179 15.7137 15.8101 16.8932 15.7249 18.0746C15.6783 18.7213 15.4919 19.2854 14.922 19.6758C14.6063 19.8925 14.2534 19.9967 13.8715 19.9972C10.6238 19.9991 7.3766 20.0031 4.12889 19.9957C3.15659 19.9938 2.40831 19.3289 2.31509 18.3848C2.1953 17.174 2.10208 15.9608 1.99834 14.748C1.88256 13.3929 1.76679 12.0378 1.65202 10.6827C1.53925 9.35358 1.42849 8.02441 1.31622 6.69525C1.29367 6.42961 1.27662 6.1625 1.23904 5.89882C1.23001 5.83376 1.16536 5.74913 1.10371 5.72173C0.18303 5.31324 -0.228947 4.36076 0.127398 3.44693C0.385511 2.78553 1.06562 2.34867 1.86001 2.34475C2.76014 2.34035 3.66028 2.34378 4.56092 2.34378C4.63259 2.34378 4.70476 2.34378 4.82003 2.34378C4.82003 2.07031 4.79397 1.80957 4.82504 1.55518C4.92328 0.744079 5.50215 0.167797 6.32711 0.0283738C6.35217 0.023971 6.37572 0.00978408 6.39978 0C8.13339 0 9.86751 0 11.6016 0ZM2.45091 5.86751C2.55917 7.15754 2.66542 8.42801 2.77318 9.69847C2.90048 11.1959 3.02978 12.6934 3.15709 14.1913C3.26935 15.5141 3.37611 16.8369 3.49238 18.1593C3.53599 18.6558 3.74298 18.8275 4.2582 18.8275C7.4187 18.8275 10.5792 18.8275 13.7397 18.8275C13.7998 18.8275 13.86 18.8295 13.9196 18.8255C14.2213 18.806 14.4429 18.6088 14.4875 18.3168C14.504 18.2077 14.513 18.0971 14.5221 17.9871C14.6078 16.9759 14.692 15.9642 14.7777 14.9525C14.8924 13.5974 15.0082 12.2428 15.1235 10.8877C15.2242 9.70776 15.326 8.5278 15.4262 7.34833C15.4678 6.85815 15.5069 6.36797 15.548 5.86849H2.45091V5.86751ZM8.99995 4.68755C11.341 4.68755 13.6816 4.68755 16.0226 4.68755C16.1028 4.68755 16.1835 4.69147 16.2627 4.68266C16.6752 4.63765 16.9222 4.21841 16.7448 3.85737C16.6125 3.58831 16.3744 3.51346 16.0838 3.51346C11.3621 3.5164 6.64035 3.51542 1.91865 3.51591C1.85851 3.51591 1.79836 3.51395 1.73872 3.52031C1.43099 3.55407 1.19894 3.80454 1.19894 4.101C1.19894 4.39697 1.43049 4.64939 1.73772 4.68217C1.81691 4.69049 1.8976 4.68706 1.97779 4.68706C4.31884 4.68706 6.6594 4.68706 9.00045 4.68706L8.99995 4.68755ZM12.0016 2.33644C12.0016 2.1525 12.0031 1.98421 12.0016 1.81641C11.9971 1.41038 11.758 1.17507 11.3425 1.17262C10.8894 1.16969 10.4364 1.17213 9.98328 1.17213C8.87716 1.17213 7.77154 1.17115 6.66541 1.17262C6.30556 1.17311 6.04394 1.3639 6.01086 1.67406C5.9873 1.89028 6.00635 2.11092 6.00635 2.33644H12.0021H12.0016Z" fill="#1D1D1B"/>
			<path d="M6.59675 16.9832C6.6168 17.4504 6.22487 17.7772 5.79033 17.6143C5.54926 17.5238 5.41745 17.3438 5.40091 17.0947C5.31771 15.836 5.23953 14.5768 5.15884 13.3176C5.05709 11.7208 4.95485 10.1246 4.85311 8.5278C4.83507 8.24211 4.81051 7.9569 4.80149 7.67072C4.79046 7.30822 5.03955 7.04111 5.38237 7.03182C5.71616 7.02301 5.97678 7.27006 5.99883 7.61984C6.13515 9.76794 6.26947 11.9165 6.4063 14.0646C6.46744 15.0254 6.53159 15.9857 6.59625 16.9827L6.59675 16.9832Z" fill="#1D1D1B"/>
			<path d="M11.4077 16.9274C11.5355 14.9413 11.6633 12.9556 11.7906 10.9694C11.8617 9.85942 11.9309 8.74941 12.0001 7.6399C12.0281 7.18934 12.4306 6.91588 12.8315 7.07731C13.0791 7.17662 13.216 7.40068 13.1979 7.70986C13.1583 8.40452 13.1112 9.09871 13.0666 9.79338C12.9914 10.968 12.9162 12.143 12.8411 13.3176C12.7609 14.5768 12.6827 15.836 12.599 17.0947C12.5769 17.4303 12.3033 17.6671 11.9755 17.6534C11.6472 17.6392 11.4062 17.3834 11.4027 17.0444C11.4027 17.0052 11.4027 16.9666 11.4027 16.9274H11.4077Z" fill="#1D1D1B"/>
			<path d="M8.40003 12.3235C8.40003 10.7742 8.39852 9.22492 8.40103 7.67561C8.40153 7.21723 8.78694 6.92468 9.19541 7.06753C9.43899 7.15265 9.5688 7.32974 9.59687 7.57777C9.60438 7.64234 9.60038 7.7079 9.60038 7.77296C9.60038 10.8192 9.60038 13.866 9.60038 16.9123C9.60038 17.3809 9.37935 17.6534 8.99995 17.6534C8.62055 17.6534 8.39953 17.3809 8.39953 16.9123C8.39953 15.3825 8.39953 13.8528 8.39953 12.323L8.40003 12.3235Z" fill="#1D1D1B"/>
	</symbol>	

	<symbol id="cart2-icon">
			<path d="M18.9993 2.80939C18.8631 3.24354 18.7217 3.67627 18.5911 4.1122C17.9866 6.13042 17.3855 8.14935 16.7826 10.1676C16.6694 10.5466 16.4994 10.6675 16.0876 10.6675C12.8167 10.6675 9.54582 10.6675 6.27532 10.6675C5.8282 10.6675 5.57106 10.8606 5.56846 11.198C5.56586 11.5344 5.82709 11.7342 6.26902 11.7342C9.52133 11.7342 12.7737 11.7342 16.0256 11.7342C16.0876 11.7342 16.1492 11.7328 16.2111 11.7353C16.531 11.7477 16.7685 11.9721 16.7714 12.2633C16.7744 12.5613 16.5328 12.7931 16.2022 12.7995C15.9243 12.8048 15.6464 12.8006 15.3651 12.8109C15.823 12.9062 16.2019 13.1195 16.4686 13.489C16.7339 13.8559 16.8167 14.2645 16.7391 14.7061C16.6111 15.4375 15.8479 16.0295 15.0646 15.9986C14.1751 15.9634 13.5072 15.3376 13.4382 14.4739C13.3763 13.6995 13.9766 12.9901 14.8902 12.8116H7.5436C7.71466 12.882 7.9321 12.9396 8.1102 13.0534C8.29647 13.1725 8.47347 13.3265 8.60148 13.5007C8.72579 13.6699 8.81781 13.878 8.85937 14.0813C8.90241 14.2908 8.90056 14.5208 8.86122 14.732C8.72356 15.4698 7.9603 16.0359 7.18738 15.9982C6.30761 15.9552 5.65009 15.3557 5.57736 14.4995C5.51985 13.8239 5.94026 13.0342 6.97402 12.7782C6.61707 12.7782 6.25714 12.8066 5.9039 12.7721C5.19889 12.7031 4.61521 12.1694 4.49017 11.5237C4.35213 10.8108 4.68015 10.1373 5.33135 9.79707C5.36883 9.77751 5.40594 9.75653 5.45826 9.72773C4.78961 6.84441 4.12059 3.9593 3.44972 1.06709H1.58256C1.30427 1.06709 1.02523 1.05287 0.748052 1.07065C0.402597 1.09269 0.148052 0.983886 0 0.675962V0.391505C0.117996 0.179229 0.268646 0.00322187 0.545083 0.0028663C1.65826 2.17338e-05 2.77143 -0.00211169 3.8846 0.00357744C4.16698 0.00499973 4.35844 0.158962 4.43896 0.420307C4.47718 0.544756 4.49981 0.673829 4.5295 0.800767C4.63265 1.2431 4.73618 1.68543 4.84082 2.1338H5.07978C9.4705 2.1338 13.8612 2.13629 18.2519 2.12918C18.5963 2.12847 18.8516 2.21736 19 2.52493V2.80939H18.9993ZM6.56883 9.59475H15.7981C16.4323 7.46843 17.0657 5.34425 17.7028 3.20869H5.08794C5.58219 5.33963 6.07421 7.46274 6.56883 9.59475ZM7.24007 13.8687C6.93729 13.8669 6.68349 14.1073 6.68163 14.3974C6.67978 14.6876 6.93061 14.9308 7.23339 14.9326C7.53618 14.9344 7.78998 14.694 7.79184 14.4038C7.79369 14.1137 7.54286 13.8705 7.24007 13.8687ZM15.0976 14.9326C15.4 14.9354 15.6553 14.6961 15.6583 14.406C15.6612 14.1162 15.4115 13.8716 15.1087 13.8687C14.8063 13.8659 14.551 14.1052 14.548 14.3953C14.5451 14.6851 14.7948 14.9297 15.0976 14.9326Z" fill="black"/>
	</symbol>	

	<symbol id="instagram">
			<path d="M10 0C11.4861 0 12.9583 0 14.4444 0C15.8194 0 17.0417 0.458971 18.0833 1.363C19.0417 2.18359 19.6389 3.2267 19.8889 4.46453C19.9583 4.82615 20 5.18776 20 5.54937C20 8.55355 20 11.5438 20 14.548C20 15.758 19.5972 16.8428 18.875 17.8025C18.2917 18.5814 17.5556 19.1655 16.6528 19.5549C16.1806 19.7636 15.6944 19.9026 15.1806 19.9583C14.9306 19.9861 14.6806 20 14.4306 20C11.4583 20 8.48611 20 5.51389 20C4.40278 20 3.375 19.6801 2.45833 19.0542C1.34722 18.3032 0.597222 17.2601 0.222222 15.9666C0.0694444 15.5076 0 15.0209 0 14.5202C0 11.516 0 8.51182 0 5.50765C0 4.25591 0.402778 3.12935 1.18056 2.14186C1.875 1.23783 2.76389 0.611961 3.84722 0.264256C4.38889 0.0973574 4.93056 0 5.5 0C7 0 8.5 0 10 0ZM10 15.5633C13.0556 15.5633 15.5417 13.0876 15.5556 10.0139C15.5556 6.9541 13.0833 4.47844 10.0833 4.45063C6.95833 4.4089 4.45833 6.9541 4.45833 10.0139C4.45833 13.0876 6.95833 15.5772 10 15.5633ZM17.7639 3.33797C17.7639 2.72601 17.2639 2.22531 16.6528 2.22531C16.0417 2.22531 15.5556 2.7121 15.5556 3.32406C15.5556 3.93602 16.0417 4.43672 16.6667 4.43672C17.2778 4.43672 17.7778 3.94993 17.7778 3.32406L17.7639 3.33797Z" fill="black"/>
			<path d="M9.98611 13.338C8.16667 13.338 6.625 11.8359 6.65278 9.93046C6.68056 8.15021 8.16667 6.63421 10.0556 6.66203C11.8333 6.70376 13.3472 8.17803 13.3056 10.0834C13.2639 11.8776 11.7917 13.3519 9.97222 13.338H9.98611Z" fill="black"/>
	</symbol>
</svg>