<svg width="82" height="26" viewBox="0 0 82 26" fill="none" xmlns="http://www.w3.org/2000/svg">
<path fill-rule="evenodd" clip-rule="evenodd" d="M28.8554 25.6314L33.0332 0.435567H39.6722L35.5269 25.6314H28.8554Z" fill="#1A1F71"/>
<path fill-rule="evenodd" clip-rule="evenodd" d="M59.6216 1.03866C58.2938 0.569588 56.2212 0 53.6627 0C47.0885 0 42.4897 3.41753 42.4573 8.30928C42.425 11.9278 45.7283 13.9381 48.2543 15.1778C50.8452 16.4175 51.7196 17.1881 51.6872 18.2938C51.6872 20.0026 49.6469 20.7732 47.7038 20.7732C45.0482 20.7732 43.6556 20.3711 41.4534 19.433L40.6114 19.0309L39.6722 24.6598C41.2267 25.3969 44.0766 25.9665 47.0885 26C54.0837 26 58.5853 22.6495 58.6501 17.3892C58.6825 14.5412 56.9013 12.3634 53.0474 10.5541C50.748 9.38144 49.3231 8.64433 49.3231 7.43814C49.3231 6.36598 50.5537 5.26031 53.1122 5.26031C55.3144 5.2268 56.9013 5.69588 58.0995 6.23196L58.7148 6.5L59.6216 1.03866Z" fill="#1A1F71"/>
<path fill-rule="evenodd" clip-rule="evenodd" d="M76.6564 0.469072H71.5071C69.9202 0.469072 68.722 0.904639 68.0095 2.54639L58.1643 25.6649H65.1272C65.1272 25.6649 66.2607 22.549 66.5197 21.8789C67.297 21.8789 74.0656 21.8789 75.0371 21.8789C75.2314 22.75 75.8468 25.6649 75.8468 25.6649H82L76.6564 0.469072ZM68.4629 16.6856C68.981 15.2783 71.0861 9.68299 71.0861 9.68299C71.0213 9.75 71.6366 8.20876 71.9605 7.27062L72.4139 9.41495C72.4139 9.41495 73.6769 15.4459 73.9684 16.6856H68.4629Z" fill="#1A1F71"/>
<path fill-rule="evenodd" clip-rule="evenodd" d="M23.3175 0.469072L16.8081 17.6237L16.128 14.1727C14.9297 10.1186 11.1406 5.79639 6.93049 3.58505L12.8894 25.6314H19.8847L30.3452 0.469072H23.3175Z" fill="#1A1F71"/>
<path fill-rule="evenodd" clip-rule="evenodd" d="M10.7844 0.435567H0.0647709L0 0.971649C8.32306 3.08247 13.861 8.10825 16.128 14.1727L13.7962 2.5799C13.3752 0.97165 12.2417 0.502577 10.7844 0.435567Z" fill="#1A1F71"/>
</svg>
