<svg width="36" height="36" viewBox="0 0 36 36" fill="none" xmlns="http://www.w3.org/2000/svg">
<path d="M0 36C0.175141 35.452 0.324399 34.9568 0.491775 34.4677C1.34591 31.9666 2.20436 29.4673 3.0654 26.9688C3.1163 26.8199 3.1094 26.6996 3.03175 26.5619C2.16381 25.021 1.5245 23.3899 1.12677 21.6654C0.72731 19.9323 0.593581 18.1774 0.735074 16.4019C1.00771 12.9857 2.17761 9.90376 4.20252 7.15684C6.49833 4.04371 9.47142 1.85517 13.1744 0.708962C15.3615 0.0319693 17.6047 -0.112606 19.8729 0.076121C22.4422 0.290819 24.8717 0.995515 27.121 2.26379C31.2234 4.57786 33.961 8.00265 35.2931 12.5356C35.9695 14.8392 36.1593 17.1966 35.8677 19.5808C35.419 23.2506 33.961 26.4771 31.5245 29.2457C29.1485 31.9458 26.2194 33.7699 22.7407 34.6754C20.5743 35.2399 18.3751 35.3585 16.1535 35.0598C15.0613 34.9127 13.9828 34.7006 12.9423 34.3396C12.4376 34.1638 11.9717 33.8764 11.4808 33.6565C11.0425 33.4608 10.6068 33.2418 10.1478 33.1163C9.44381 32.9232 8.74238 33.0903 8.07374 33.3189C7.12297 33.6444 6.19895 34.0487 5.2456 34.3647C3.58306 34.9161 1.90671 35.4252 0.235534 35.9515C0.176866 35.9697 0.114748 35.9766 0 35.9991V36ZM4.77281 31.3987C5.0463 31.3173 5.25682 31.2576 5.46561 31.1918C6.94783 30.7278 8.43179 30.2646 9.91143 29.7937C10.0883 29.7374 10.2229 29.7703 10.3756 29.8603C12.4894 31.107 14.7679 31.8307 17.2164 31.9779C18.8764 32.0783 20.5148 31.8991 22.1152 31.442C24.4887 30.7641 26.599 29.6015 28.4022 27.9073C31.2614 25.2201 32.8247 21.926 32.9377 17.9757C32.9826 16.4036 32.7695 14.8591 32.3079 13.3537C31.4262 10.4769 29.8292 8.07796 27.4876 6.19416C25.2212 4.37095 22.6303 3.34075 19.7357 3.08103C17.9903 2.92434 16.2665 3.02649 14.5712 3.49138C11.0831 4.44714 8.36535 6.48331 6.34735 9.46744C4.83924 11.6975 3.99028 14.1674 3.78322 16.8615C3.65639 18.5099 3.81945 20.1253 4.2448 21.7174C4.67963 23.3458 5.39227 24.8461 6.337 26.239C6.39049 26.3169 6.40861 26.458 6.37841 26.5481C6.13942 27.271 5.87801 27.986 5.63816 28.7089C5.34913 29.5807 5.07477 30.4568 4.77194 31.4004L4.77281 31.3987Z" fill="white"/>
<path d="M9.42483 13.6341C9.48177 12.4386 9.70264 11.3045 10.3816 10.3011C11.1012 9.23889 12.2478 8.79651 13.504 9.03285C13.8827 9.1047 14.0941 9.26573 14.2511 9.62414C14.6411 10.515 15.0699 11.3911 15.2899 12.3442C15.3831 12.7485 15.4435 13.1684 15.4555 13.5822C15.4857 14.5942 15.0578 15.3803 14.195 15.9136C14.0613 15.9967 14.0415 16.0582 14.1114 16.2001C15.3089 18.6259 17.1526 20.4041 19.5235 21.655C19.7901 21.7961 20.0601 21.9338 20.3379 22.0498C20.4173 22.0827 20.5622 22.0732 20.6218 22.0204C21.0143 21.6723 21.4026 21.3191 21.7701 20.9451C22.1126 20.5963 22.431 20.2231 22.7537 19.8543C22.8434 19.7522 22.9253 19.7305 23.0513 19.7816C24.5473 20.3868 25.9959 21.0819 27.3289 22.0039C27.454 22.0905 27.5075 22.1823 27.5092 22.3381C27.5213 24.3128 26.2901 25.8044 24.3196 26.2373C22.9262 26.5429 21.5915 26.3394 20.281 25.8512C18.5235 25.1958 16.9714 24.1881 15.5263 23.0073C13.7257 21.5356 12.1486 19.8561 10.8993 17.8831C10.3506 17.0174 9.8588 16.1162 9.63189 15.105C9.52404 14.6228 9.49126 14.1233 9.42483 13.6324V13.6341Z" fill="white"/>
</svg>
